<svg xmlns="http://www.w3.org/2000/svg" xmlns:xlink="http://www.w3.org/1999/xlink" data-name="Layer 1" viewBox="0 0 1600 1200"><defs><linearGradient id="a" x1="-9235.37" x2="7462.38" y1="282.02" y2="282.02" gradientUnits="userSpaceOnUse"><stop offset="0" stop-color="#ff7d00"/><stop offset=".98" stop-color="#ffd86b"/></linearGradient><linearGradient id="s" x1="-4837.72" x2="4566.69" y1="329.92" y2="329.92" xlink:href="#a"/><linearGradient id="t" x1="-4839.39" x2="4567.79" y1="321.49" y2="321.49" xlink:href="#a"/><linearGradient id="u" x1="-3451.21" x2="3653.71" y1="339.72" y2="339.72" xlink:href="#a"/><linearGradient id="v" x1="-899.42" x2="2041.17" y1="301.84" y2="301.84" xlink:href="#a"/><linearGradient id="w" x1="-961.62" x2="1948.31" y1="299.66" y2="299.66" xlink:href="#a"/><linearGradient id="x" x1="-1108.55" x2="2035.75" y1="276.19" y2="276.19" xlink:href="#a"/><linearGradient id="y" x1="-979.09" x2="1961.89" y1="253.06" y2="253.06" xlink:href="#a"/><linearGradient id="z" x1="-591.09" x2="1735.45" y1="236.47" y2="236.47" xlink:href="#a"/><linearGradient id="A" x1="-48.44" x2="1417.06" y1="230.87" y2="230.87" xlink:href="#a"/><linearGradient id="B" x1="-512.67" x2="1761.1" y1="237.74" y2="237.74" xlink:href="#a"/><linearGradient id="C" x1="-879.67" x2="2030.28" y1="255.25" y2="255.25" xlink:href="#a"/><linearGradient id="D" x1="-1015.87" x2="2129.27" y1="278.72" y2="278.72" xlink:href="#a"/><linearGradient id="b" x1="-460.28" x2="-179.6" y1="611.91" y2="611.91" gradientTransform="translate(1153.89)" gradientUnits="userSpaceOnUse"><stop offset="0" stop-color="#75649c"/><stop offset="1" stop-color="#9d97de"/></linearGradient><linearGradient id="E" x1="67.77" x2="329.5" y1="490.37" y2="490.37" gradientTransform="matrix(-1 0 0 1 914.32 0)" xlink:href="#b"/><linearGradient id="F" x1="5005.12" x2="5005.12" y1="84.85" y2="146.81" gradientTransform="matrix(-.98 .18 .18 .98 5981.44 -770.01)" gradientUnits="userSpaceOnUse"><stop offset="0" stop-color="#4e3422"/><stop offset="1" stop-color="#724a2f"/></linearGradient><linearGradient id="H" x1="-4072.01" x2="-3464.33" y1="374.85" y2="374.85" gradientTransform="rotate(-8.64 -1332.51 -31796.325)" gradientUnits="userSpaceOnUse"><stop offset="0" stop-color="#ff8299"/><stop offset="1" stop-color="#f46d74"/></linearGradient><linearGradient id="c" x1="4869.96" x2="5084.36" y1="182.48" y2="175.52" gradientTransform="matrix(-.98 .18 .18 .98 5981.44 -770.01)" gradientUnits="userSpaceOnUse"><stop offset="0" stop-color="#f16077"/><stop offset="1" stop-color="#fff981"/></linearGradient><linearGradient id="I" x1="3378.52" x2="3715.9" y1="2037.32" y2="2026.37" gradientTransform="rotate(92.58 3125.878 -134.343)" xlink:href="#c"/><linearGradient id="J" x1="3895.26" x2="4232.63" y1="1683.61" y2="1672.66" gradientTransform="matrix(-.3 .95 -.95 -.3 3840.61 -3189.36)" xlink:href="#c"/><linearGradient id="K" x1="4869.25" x2="5102.45" y1="207.43" y2="199.86" xlink:href="#c"/><linearGradient id="L" x1="4855.61" x2="5135.35" y1="239.36" y2="230.28" xlink:href="#c"/><linearGradient id="M" x1="4856.53" x2="5136.27" y1="267.61" y2="258.53" xlink:href="#c"/><linearGradient id="N" x1="4857.28" x2="5137.02" y1="290.73" y2="281.64" xlink:href="#c"/><linearGradient id="O" x1="4858.26" x2="5138" y1="320.97" y2="311.89" xlink:href="#c"/><linearGradient id="d" x1="4836.97" x2="4927.53" y1="1393.72" y2="1415.73" gradientTransform="matrix(-.99 -.17 -.17 .99 6084.51 256.67)" gradientUnits="userSpaceOnUse"><stop offset=".01" stop-color="#ffd0a3"/><stop offset=".35" stop-color="#ffe0b8"/><stop offset=".72" stop-color="#ffedc8"/><stop offset="1" stop-color="#fff1ce"/></linearGradient><linearGradient id="P" x1="4782.58" x2="4879.96" y1="1386.53" y2="1406.04" xlink:href="#d"/><linearGradient id="g" x1="-2075.88" x2="-2063" y1="-1347.03" y2="-1333.64" gradientTransform="matrix(.5 -.53 .55 .76 2757.85 143.05)" gradientUnits="userSpaceOnUse"><stop offset="0" stop-color="#294793"/><stop offset="1" stop-color="#74d6be"/></linearGradient><linearGradient id="S" x1="-2017.64" x2="-2003.83" y1="-1326.82" y2="-1312.47" gradientTransform="matrix(.52 -.53 .54 .74 2773.59 129.17)" xlink:href="#g"/><linearGradient id="U" x1="5018.79" x2="5119.68" y1="29.89" y2="-3.46" gradientTransform="matrix(-.81 .59 .59 .81 5237.23 -2489)" xlink:href="#d"/><linearGradient id="V" x1="-3565.58" x2="-3550.59" y1="2739.6" y2="2728.4" gradientTransform="rotate(-9.63 -14239.885 -26132.292)" xlink:href="#d"/><linearGradient id="X" x1="2017.39" x2="2094.83" y1="654.61" y2="654.61" gradientTransform="matrix(-1 0 0 1 2909.61 0)" xlink:href="#e"/><linearGradient id="Y" x1="2259.15" x2="2281.05" y1="-266.89" y2="-266.89" gradientTransform="matrix(-.96 .3 .3 .96 3160.78 41.18)" xlink:href="#e"/><linearGradient id="aa" x1="2174.54" x2="2221.12" y1="-233.7" y2="-221.28" gradientTransform="matrix(-.96 .3 .3 .96 3160.78 41.18)" xlink:href="#e"/><linearGradient id="i" x1="2161.79" x2="2277.57" y1="-305.33" y2="-305.33" gradientTransform="matrix(-.96 .3 .3 .96 3160.78 41.18)" gradientUnits="userSpaceOnUse"><stop offset="0" stop-color="#be3e00"/><stop offset=".98" stop-color="#d87209"/></linearGradient><linearGradient id="ab" x1="2257.08" x2="2274.47" y1="-308.5" y2="-308.5" xlink:href="#i"/><linearGradient id="l" x1="2399.24" x2="2336.91" y1="741.97" y2="1291.79" gradientTransform="matrix(-1 0 0 1 2909.61 0)" gradientUnits="userSpaceOnUse"><stop offset="0" stop-color="#bda5f5"/><stop offset=".45" stop-color="#dccbf6"/><stop offset="1" stop-color="#fff6f7"/></linearGradient><linearGradient id="af" x1="-2458.66" x2="-2520.99" y1="741.97" y2="1291.79" gradientTransform="translate(3296.8)" gradientUnits="userSpaceOnUse"><stop offset="0" stop-color="#d6beff"/><stop offset=".32" stop-color="#e4d4ff"/><stop offset="1" stop-color="#fff"/></linearGradient><linearGradient id="ag" x1="-2215.69" x2="-2217.81" y1="839.42" y2="1362.68" gradientTransform="matrix(-.99 -.16 -.16 .99 -926.74 -467.25)" xlink:href="#l"/><linearGradient id="ah" x1="-2098.76" x2="-2100.95" y1="653.25" y2="1194.33" gradientTransform="matrix(-1 .03 .03 1 -1141.99 128.46)" xlink:href="#l"/><linearGradient id="ai" x1="-2167.97" x2="-2170.08" y1="943.93" y2="1467.23" gradientTransform="scale(-1 1) rotate(-16.3 -2554.7 -2925.35)" xlink:href="#l"/><linearGradient id="aj" x1="1950.77" x2="2492.6" y1="709.93" y2="709.93" gradientTransform="matrix(1 0 0 -1 -1533.76 1419.87)" gradientUnits="userSpaceOnUse"><stop offset="0" stop-color="#fff6f7"/><stop offset=".55" stop-color="#dccbf6"/><stop offset="1" stop-color="#bda5f5"/></linearGradient><linearGradient id="o" x1="910.45" x2="910.88" y1="730.73" y2="704.2" gradientTransform="rotate(8.66 3310.447 -895.006)" gradientUnits="userSpaceOnUse"><stop offset=".01" stop-color="#edb285"/><stop offset=".35" stop-color="#f6c29a"/><stop offset=".72" stop-color="#fdcfaa"/><stop offset="1" stop-color="#ffd3b0"/></linearGradient><linearGradient id="ao" x1="809.55" x2="918.17" y1="680.52" y2="641.29" gradientTransform="rotate(8.66 3310.447 -895.006)" gradientUnits="userSpaceOnUse"><stop offset="0" stop-color="#ff8f1b"/><stop offset=".98" stop-color="#ffbe61"/></linearGradient><linearGradient id="ap" x1="269.72" x2="311.5" y1="517.41" y2="529.63" gradientTransform="matrix(-.84 -.55 -.55 .84 1217.45 57.34)" xlink:href="#o"/><linearGradient id="aq" x1="825.46" x2="842.88" y1="596.93" y2="585.91" gradientTransform="rotate(39.49 1074.317 206.405)" xlink:href="#o"/><linearGradient id="p" x1="904.17" x2="920.82" y1="687.62" y2="687.62" gradientTransform="rotate(8.66 3310.447 -895.006)" gradientUnits="userSpaceOnUse"><stop offset="0" stop-color="#e16f00"/><stop offset=".98" stop-color="#f89e42"/></linearGradient><linearGradient id="at" x1="285.86" x2="291.88" y1="504.67" y2="504.67" gradientTransform="matrix(-.84 -.55 -.55 .84 1217.45 57.34)" xlink:href="#p"/><linearGradient id="r" x1="484.05" x2="526.67" y1="1014.2" y2="1014.2" gradientTransform="translate(123.27)" gradientUnits="userSpaceOnUse"><stop offset="0" stop-color="#cc791b"/><stop offset="1" stop-color="#e8ad4d"/></linearGradient><linearGradient id="av" x1="360.02" x2="402.65" y1="932.94" y2="932.94" gradientTransform="rotate(24.09 259.555 1155.212)" xlink:href="#r"/><linearGradient id="ay" x1="504.58" x2="526.49" y1="679.92" y2="679.92" gradientTransform="matrix(-.97 -.23 -.23 .97 1225.27 70.57)" gradientUnits="userSpaceOnUse"><stop offset="0" stop-color="#ffd3b0"/><stop offset=".28" stop-color="#fdcfaa"/><stop offset=".65" stop-color="#f6c29a"/><stop offset=".99" stop-color="#edb285"/></linearGradient><radialGradient id="e" cx="5055.3" cy="353.48" r="58.17" gradientTransform="matrix(-.99 .15 .15 .99 6008.21 -750.64)" gradientUnits="userSpaceOnUse"><stop offset="0" stop-color="#f6b98a"/><stop offset="1" stop-color="#ffd3b0"/></radialGradient><radialGradient id="Q" cx="5182.39" cy="-15.06" r="19.44" gradientTransform="matrix(-.93 .38 .44 1.06 5851.12 -1688.38)" xlink:href="#e"/><radialGradient id="h" cx="5269.42" cy="-31.68" r="25.89" gradientTransform="matrix(-.92 .38 .38 .92 5824.47 -1748.66)" gradientUnits="userSpaceOnUse"><stop offset="0" stop-color="#f6b98a"/><stop offset=".13" stop-color="#f7bc8f"/><stop offset="1" stop-color="#ffd3b0"/></radialGradient><radialGradient id="f" cx="5126.75" cy="-146.71" r="57.71" gradientTransform="matrix(-.91 .4 .4 .91 5793.6 -1760.92)" gradientUnits="userSpaceOnUse"><stop offset="0" stop-color="#724a2f"/><stop offset="1" stop-color="#4e3422"/></radialGradient><radialGradient id="R" cx="5139.82" cy="-164.9" r="149.72" xlink:href="#f"/><radialGradient id="T" cx="1933.22" cy="-2295.03" r="9.19" gradientTransform="matrix(-1 .05 .11 2.14 3178.11 5039.85)" xlink:href="#h"/><radialGradient id="k" cx="1939.54" cy="708.14" r="44.29" gradientTransform="matrix(-1 0 0 1 2909.61 0)" gradientUnits="userSpaceOnUse"><stop offset="0" stop-color="#4d3581"/><stop offset="1" stop-color="#5a53a2"/></radialGradient><radialGradient id="W" cx="5211.22" cy="-7663.73" r="24.86" gradientTransform="matrix(-.75 .66 1.67 1.89 17594.28 11676.28)" gradientUnits="userSpaceOnUse"><stop offset="0" stop-color="#ffd3b0"/><stop offset="1" stop-color="#f6b98a"/></radialGradient><radialGradient id="Z" cx="2229.12" cy="-215.43" r="30.83" gradientTransform="matrix(-.96 .3 .3 .96 3160.78 41.18)" xlink:href="#e"/><radialGradient id="j" cx="1935.76" cy="650.58" r="85.3" gradientTransform="matrix(-1 0 0 1 2909.61 0)" gradientUnits="userSpaceOnUse"><stop offset=".02" stop-color="#b42d34"/><stop offset="1" stop-color="#d34259"/></radialGradient><radialGradient id="ac" cx="2206.55" cy="744.77" r="15.48" gradientTransform="matrix(-.96 .29 .29 .96 2690.06 -409.06)" xlink:href="#j"/><radialGradient id="ad" cx="1938.3" cy="933.53" r="87.95" gradientTransform="matrix(-.97 -.23 -.23 .97 2979.42 330.71)" xlink:href="#k"/><radialGradient id="ae" cx="-10493.64" cy="-10130.44" r="20.07" gradientTransform="matrix(.83 .56 2.72 -3.98 37194.15 -33599.82)" xlink:href="#k"/><radialGradient id="ak" cx="1293.56" cy="1203.59" r="88.36" gradientTransform="matrix(-.09 1 -1 -.09 1871.9 -514.43)" gradientUnits="userSpaceOnUse"><stop offset=".01" stop-color="#34355b"/><stop offset="1" stop-color="#595a94"/></radialGradient><radialGradient id="m" cx="503.46" cy="688.65" r="46.87" gradientTransform="matrix(1.08 .01 .01 1 9.82 -15.98)" gradientUnits="userSpaceOnUse"><stop offset=".01" stop-color="#25246d"/><stop offset="1" stop-color="#595a94"/></radialGradient><radialGradient id="al" cx="580.22" cy="537.2" r="79.82" gradientTransform="matrix(.42 1 -.91 .41 743.81 -77.87)" xlink:href="#m"/><radialGradient id="n" cx="760.49" cy="249.81" r="80.24" gradientTransform="scale(-1 1) rotate(45 -250.6 -1273.128)" gradientUnits="userSpaceOnUse"><stop offset=".02" stop-color="#775e98"/><stop offset="1" stop-color="#7f6aa9"/></radialGradient><radialGradient id="am" cx="1755.55" cy="592.1" r="103.48" gradientTransform="matrix(-.97 -.23 -.23 .97 2410.15 352.88)" xlink:href="#n"/><radialGradient id="an" cx="489.76" cy="680.22" r="81.24" gradientTransform="matrix(-.96 -.27 -.29 1.01 1224.86 178.79)" xlink:href="#n"/><radialGradient id="q" cx="461.68" cy="969.86" r="81.81" gradientTransform="translate(123.27)" gradientUnits="userSpaceOnUse"><stop offset=".01" stop-color="#595a94"/><stop offset="1" stop-color="#595a94"/></radialGradient><radialGradient id="ar" cx="851.22" cy="800.63" r="19.54" gradientTransform="rotate(-12.26 -1518.49 1416.68)" gradientUnits="userSpaceOnUse"><stop offset=".42" stop-color="#f7bc8f"/><stop offset="1" stop-color="#ffd6b0"/></radialGradient><radialGradient id="as" cx="61.53" cy="507.2" r="1.51" gradientTransform="matrix(-.53 -.35 -.55 .84 1010.04 -79.11)" xlink:href="#n"/><radialGradient id="au" cx="341.03" cy="891.29" r="76.56" gradientTransform="rotate(24.09 259.555 1155.212)" xlink:href="#q"/><radialGradient id="aw" cx="773.49" cy="1096.73" r="16.59" gradientTransform="rotate(.98 32680.362 -1537.723)" xlink:href="#o"/><radialGradient id="ax" cx="-2366.35" cy="-1284.9" r="14.11" gradientTransform="matrix(-.95 -.33 -.54 1.56 -2354.71 1863.49)" gradientUnits="userSpaceOnUse"><stop offset="0" stop-color="#25246d"/><stop offset="1" stop-color="#595a94"/></radialGradient><clipPath id="G"><path fill="none" d="M1046.45,279.6c-25,12.73-2.83,29.13,5.24,29.2,6.48.05,28.74-5.93,32.07-21.85,16.64,6.34,26.09,7.6,33,13.21,13.68,11.14,55.72,101,66.43,127.92-1.74,13.38-24.43,13-29,7.93-9-10.12-39.1-84.35-55.87,2.52-8.82,13.06-43.27,24.64-47.49,13.93-42.3-107.44-38.7-41.42-62.15-33.09-3.53,1.25-11.46-15.07-16.45-17.1,3.82-8.1,4.57-21.29,12.13-39.21,4.8-11.37,21.79-78.66,36.65-81.26C1042.15,278.11,1041.2,280.43,1046.45,279.6Z"/></clipPath></defs><ellipse cx="800" cy="974.82" fill="#f2f2f2" rx="418.57" ry="94.58"/><path fill="url(#a)" d="M829.2,247.72a31.48,31.48,0,0,0-27.82,28.59c-1.87,22.1,16,25.8,16,38.79,0,1.89,30.91,1.89,30.91,0,0-12.47,16.07-15.88,16.07-36.06A31.52,31.52,0,0,0,829.2,247.72Z"/><path fill="url(#s)" d="M847,326H818.57c-4.7,0-4.69,7.81,0,7.81H847a3.92,3.92,0,0,0,0-7.81Zm0,5.66H818.57c-1.85,0-1.85-3.51,0-3.51H847C848.88,328.17,848.89,331.68,847,331.68Z"/><path fill="url(#t)" d="M846.85,317.59H818.74c-4.87,0-5,7.8,0,7.8h28.11c2.19,0,3.72-1.68,3.72-4.08A3.73,3.73,0,0,0,846.85,317.59Zm0,5.66H818.74c-2.16,0-2-3.52,0-3.52h28.11C849,319.73,848.93,323.25,846.85,323.25Z"/><path fill="url(#u)" d="M820.46,334.8a1.08,1.08,0,0,0-.84,1.75c6.35,7.84,6.24,8.11,7.07,8.11,12.59,0,12.52.25,13-.4,6.28-7.76,6.83-7.89,6.37-8.85S846.42,334.8,820.46,334.8Zm20.18,4.93H825L822.7,337h20.19Z"/><path fill="url(#v)" d="M877.81,301.05l-5.69-3.14a2.65,2.65,0,0,0-3.93,1.74,2.6,2.6,0,0,0,1.32,3l5.69,3.14a2.7,2.7,0,1,0,2.61-4.73Z"/><path fill="url(#w)" d="M795.76,295.25a2.71,2.71,0,0,0-1.41.41L788.78,299a2.61,2.61,0,0,0-1.21,3,2.66,2.66,0,0,0,4,1.64l5.56-3.36a2.62,2.62,0,0,0,1.22-3A2.75,2.75,0,0,0,795.76,295.25Z"/><path fill="url(#x)" d="M793.29,276.11a2.62,2.62,0,0,0-2.63-2.69l-6.61.13a2.71,2.71,0,0,0,0,5.41l6.6-.13A2.64,2.64,0,0,0,793.29,276.11Z"/><path fill="url(#y)" d="M798.38,252.27l-5.69-3.14a2.65,2.65,0,0,0-3.93,1.74,2.59,2.59,0,0,0,1.31,3l5.7,3.14a2.7,2.7,0,0,0,2.61-4.73Z"/><path fill="url(#z)" d="M811.11,240.65a2.7,2.7,0,0,0,2.31,1.31,2.67,2.67,0,0,0,1.4-.39,2.7,2.7,0,0,0,.92-3.71l-3.36-5.56a2.6,2.6,0,0,0-2.26-1.32,2.85,2.85,0,0,0-2.45,1.43,2.61,2.61,0,0,0,.08,2.68Z"/><path fill="url(#A)" d="M835.27,236.82h.05a2.71,2.71,0,0,0,2.65-2.76l-.12-6.5a2.65,2.65,0,0,0-2.7-2.64,2.77,2.77,0,0,0-2,.81,2.69,2.69,0,0,0-.74,1.94l.13,6.5A2.72,2.72,0,0,0,835.27,236.82Z"/><path fill="url(#B)" d="M856.82,243.3a2.6,2.6,0,0,0,2.31-1.41l3.14-5.69a2.6,2.6,0,0,0,0-2.64,2.87,2.87,0,0,0-2.42-1.38,2.58,2.58,0,0,0-2.31,1.41l-3.14,5.69a2.6,2.6,0,0,0,0,2.64A2.86,2.86,0,0,0,856.82,243.3Z"/><path fill="url(#C)" d="M872.12,259.66a2.74,2.74,0,0,0,1.42-.41l5.56-3.36a2.6,2.6,0,0,0,1.22-3,2.66,2.66,0,0,0-4-1.64l-5.57,3.36a2.61,2.61,0,0,0-1.21,3A2.74,2.74,0,0,0,872.12,259.66Z"/><path fill="url(#D)" d="M883.87,276l-6.64.13a2.71,2.71,0,0,0,0,5.41l6.61-.13a2.65,2.65,0,0,0,2.64-2.73A2.61,2.61,0,0,0,883.87,276Z"/><path fill="#fff" d="M834,310.42c0-13.56.92-22.69,2.1-28.83a6.56,6.56,0,0,1-2.2-.83A6.88,6.88,0,0,1,827,286c-6.9,0-8.63-8.18-6.07-8.18a1.07,1.07,0,0,1,1.07,1.07c0,6.55,10,6.74,10-.1a1.07,1.07,0,0,1,1.83-.76,5,5,0,0,0,2.71,1.49c1.24-5.47,4-12,5.86-10.06,4.64,4.64,1.15,11.3-4.09,12.17-1.17,5.9-2.15,15-2.15,28.82A1.08,1.08,0,0,1,834,310.42Zm7.61-38.6c-.66,1-1.76,3.12-2.8,7.44C841.57,278.26,843.59,274.76,841.59,271.82Z"/><polygon fill="url(#b)" points="751.34 542.95 752.39 667.95 767.48 668.25 772.85 675.8 777.77 668.46 916.89 673.97 924.1 683.1 643.42 680.67 652.74 671.58 701.16 668.77 725.81 540.73 751.34 542.95"/><polygon fill="url(#E)" points="831.59 407.65 846.55 577.34 612.11 589.79 600.69 588.68 584.82 390.96 831.59 407.65"/><polygon fill="#b0aaf0" points="596.16 398.09 823.77 415.78 840.36 565.59 614.83 582.49 596.16 398.09"/><polygon fill="#ded7ff" points="643.46 413.14 613.31 411.17 612.9 407 643.06 409.06 643.46 413.14"/><polygon fill="#ded7ff" points="701.98 416.97 648.88 413.5 648.48 409.44 701.58 413.06 701.98 416.97"/><polygon fill="#ffd9fc" points="737.81 419.31 707.66 417.34 707.27 413.45 737.43 415.51 737.81 419.31"/><polygon fill="#ded7ff" points="765.83 421.15 743.04 419.66 742.65 415.87 765.45 417.43 765.83 421.15"/><polygon fill="#ded7ff" points="635.47 444.37 616.47 443.56 616.06 439.39 635.07 440.26 635.47 444.37"/><polygon fill="#ffd9fc" points="678.51 446.2 641.2 444.61 640.79 440.52 678.11 442.22 678.51 446.2"/><polygon fill="#ded7ff" points="740.81 448.86 682.26 446.37 681.86 442.39 740.43 445.06 740.81 448.86"/><polygon fill="#ded7ff" points="768.79 450.06 746.03 449.09 745.64 445.3 768.41 446.34 768.79 450.06"/><polygon fill="#ded7ff" points="634.87 497.6 621.73 497.54 621.33 493.37 634.46 493.47 634.87 497.6"/><polygon fill="#ded7ff" points="696.77 497.88 641.88 497.63 641.47 493.52 696.38 493.94 696.77 497.88"/><polygon fill="#ded7ff" points="745.81 498.11 703.08 497.91 702.69 493.99 745.43 494.31 745.81 498.11"/><polygon fill="#ded7ff" points="773.73 498.24 751.02 498.13 750.63 494.35 773.35 494.52 773.73 498.24"/><polygon fill="#ded7ff" points="709.41 548.75 679.42 549.76 679.03 545.75 709.02 544.83 709.41 548.75"/><polygon fill="#ded7ff" points="767.6 546.79 714.8 548.57 714.41 544.66 767.22 543.04 767.6 546.79"/><polygon fill="#ded7ff" points="803.24 545.6 773.25 546.61 772.87 542.87 802.86 541.95 803.24 545.6"/><polygon fill="#ded7ff" points="831.1 544.66 808.43 545.42 808.06 541.79 830.72 541.1 831.1 544.66"/><polygon fill="#ded7ff" points="683.03 539.24 665.28 539.7 664.88 535.65 682.63 535.24 683.03 539.24"/><polygon fill="#ffd9fc" points="690.11 539.06 700.67 538.78 700.28 534.84 689.71 535.08 690.11 539.06"/><polygon fill="#ded7ff" points="753.24 537.42 708.39 538.58 708 534.66 752.85 533.63 753.24 537.42"/><polygon fill="#ffd9fc" points="782.53 536.66 762.33 537.18 761.95 533.42 782.15 532.96 782.53 536.66"/><polygon fill="#ded7ff" points="674.72 570.88 668.39 571.19 667.99 567.14 674.32 566.85 674.72 570.88"/><polygon fill="#ded7ff" points="756.49 566.88 679.44 570.65 679.04 566.63 756.11 563.09 756.49 566.88"/><polygon fill="#ded7ff" points="792.1 565.13 762.14 566.6 761.75 562.83 791.72 561.45 792.1 565.13"/><polygon fill="#ded7ff" points="819.93 563.77 797.29 564.88 796.91 561.21 819.56 560.17 819.93 563.77"/><polygon fill="#ded7ff" points="649.92 424.02 627.53 422.73 627.13 418.6 649.52 419.96 649.92 424.02"/><polygon fill="#ded7ff" points="705.11 427.21 655.11 424.32 654.72 420.28 704.72 423.31 705.11 427.21"/><polygon fill="#ded7ff" points="751.99 429.93 711.43 427.58 711.04 423.7 751.6 426.17 751.99 429.93"/><polygon fill="#ded7ff" points="658.71 434.94 628.58 433.42 628.18 429.3 658.31 430.9 658.71 434.94"/><polygon fill="#ded7ff" points="729.82 438.51 664.12 435.21 663.72 431.19 729.43 434.68 729.82 438.51"/><polygon fill="#ded7ff" points="752.98 439.68 735.94 438.82 735.56 435.01 752.6 435.91 752.98 439.68"/><polygon fill="#ded7ff" points="780.97 441.08 758.2 439.94 757.82 436.19 780.59 437.4 780.97 441.08"/><polygon fill="#ded7ff" points="660.78 455.87 630.68 454.81 630.27 450.69 660.38 451.83 660.78 455.87"/><polygon fill="#ded7ff" points="719.19 457.92 666.19 456.06 665.79 452.04 718.8 454.05 719.19 457.92"/><polygon fill="#ded7ff" points="754.97 459.17 724.87 458.12 724.48 454.27 754.59 455.41 754.97 459.17"/><polygon fill="#ded7ff" points="683.91 487.52 633.82 486.9 633.42 482.78 683.52 483.54 683.91 487.52"/><polygon fill="#ffd9fc" points="722.22 487.99 688.64 487.57 688.25 483.61 721.83 484.12 722.22 487.99"/><polygon fill="#ded7ff" points="757.95 488.42 727.89 488.05 727.5 484.2 757.57 484.66 757.95 488.42"/><polygon fill="#ded7ff" points="671.29 518.63 636.96 518.99 636.56 514.86 670.89 514.6 671.29 518.63"/><polygon fill="#ded7ff" points="725.25 518.05 678.02 518.55 677.62 514.55 724.86 514.18 725.25 518.05"/><polygon fill="#ded7ff" points="760.94 517.67 730.91 517.99 730.52 514.14 760.55 513.91 760.94 517.67"/><polygon fill="#ded7ff" points="788.83 517.37 766.14 517.62 765.75 513.87 788.45 513.69 788.83 517.37"/><polygon fill="#ded7ff" points="644.3 508.27 635.92 508.29 635.51 504.17 643.9 504.17 644.3 508.27"/><polygon fill="#ffd9fc" points="666.06 508.2 649.04 508.25 648.64 504.17 665.66 504.17 666.06 508.2"/><polygon fill="#ded7ff" points="724.24 508.03 671.35 508.19 670.95 504.17 723.85 504.16 724.24 508.03"/><polygon fill="#ded7ff" points="759.94 507.92 729.9 508.01 729.51 504.16 759.56 504.16 759.94 507.92"/><polygon fill="#ded7ff" points="787.85 507.84 765.14 507.9 764.76 504.16 787.47 504.16 787.85 507.84"/><polygon fill="#ded7ff" points="686.91 477.28 647.41 476.5 647 472.41 686.52 473.31 686.91 477.28"/><polygon fill="#ded7ff" points="745.85 478.45 692.88 477.4 692.48 473.45 745.47 474.66 745.85 478.45"/><polygon fill="#ded7ff" points="771.59 478.96 750.98 478.55 750.6 474.77 771.21 475.25 771.59 478.96"/><polygon fill="#ded7ff" points="799.53 479.52 776.8 479.07 776.42 475.36 799.16 475.88 799.53 479.52"/><polygon fill="#ded7ff" points="680.9 528.9 650.89 529.45 650.49 525.36 680.51 524.9 680.9 528.9"/><polygon fill="#ded7ff" points="739.14 527.84 686.29 528.8 685.9 524.82 738.75 524.01 739.14 527.84"/><polygon fill="#ded7ff" points="774.81 527.18 744.8 527.73 744.41 523.92 774.43 523.46 774.81 527.18"/><polygon fill="#ded7ff" points="802.69 526.67 780.01 527.09 779.63 523.38 802.32 523.03 802.69 526.67"/><polygon fill="#ded7ff" points="673.69 560.43 652.77 561.29 652.37 557.2 673.29 556.4 673.69 560.43"/><polygon fill="#ffd9fc" points="740.91 557.66 678.4 560.24 678.01 556.22 740.52 553.83 740.91 557.66"/><polygon fill="#ded7ff" points="776.53 556.19 746.56 557.42 746.17 553.61 776.15 552.46 776.53 556.19"/><polygon fill="#ded7ff" points="664.98 466.42 646.18 465.91 645.77 461.82 664.58 462.39 664.98 466.42"/><polygon fill="#ffd9fc" points="734.65 468.34 670.7 466.58 670.3 462.57 734.27 464.51 734.65 468.34"/><polygon fill="#ded7ff" points="770.41 469.32 740.32 468.49 739.94 464.69 770.03 465.6 770.41 469.32"/><polygon fill="url(#F)" points="1057.98 163.72 1114.61 315.33 1106.79 319.79 1087.21 264.66 1102.15 320.07 1086.88 326.96 1070.45 244.62 1081.17 326.99 1069.71 327.8 1051.69 157.23 1057.98 163.72"/><polygon fill="url(#e)" points="1060.85 408.96 1011.4 301.34 1046.45 279.6 1058.86 275.01 1100.09 295.97 1095.68 409.71 1060.85 408.96"/><g clip-path="url(#G)"><path fill="url(#H)" d="M1399.8,377.23c33.63,219.08-542,348.88-599.93,91.15C713.16,82.39,1347.34,35.52,1399.8,377.23Z"/><path fill="url(#c)" d="M1137,288.48l-.46-1.29c-10.48.24-21.49,3.64-31.2,7.33-84.5,46.47-93.41,15.46-55.11-33.68C980.39,329.9,1039.53,357.35,1137,288.48Z"/><path fill="url(#I)" d="M950.92,341.6c-.09-39.3-54.81-81.66.58-187.38l1.33.28c1.16,10.42-.76,21.79-3.13,31.9-31.89,131.6,2.25,69.83,7,136.35.52,6.82-.41,14.43-4.51,19.45Z"/><path fill="url(#J)" d="M987.94,332.71c10-38-32-93,48.73-180.95l1.22.62c-1.57,10.36-6.34,20.86-11.23,30-64.65,119-15.77,68.07-28.3,133.57-1.25,6.72-4.11,13.83-9.36,17.64Z"/><path fill="url(#K)" d="M995.59,311.32c14,9.6-11.09,41.1,39.67,40.75,62.25,1.25,58.91-14.88,108.59-46.26a.93.93,0,0,0-.45-1.71c-46.84-2.39-126.69,79.23-133.74,18.47-.83-7.15-.66-29.57-.3-29.44C998.44,289.32,995.27,311.11,995.59,311.32Z"/><path fill="url(#L)" d="M960.86,349.07c29.36,7.09,37.34,26.7,66.21,19.72,31.33-8.45,17.92-7.43,49.46-4.91,34.11,2.58,58.81-29.35,92.13-34.89l.19-1.35c-29.58-11.49-60.52,18.09-85.58,24.68.27-.05,0,0,.08,0-1.11.25-51.36,10.94-65.88,8,.29,0,0,0,.09,0-24.49-7.75-39.6-19.15-56.79-12.56Z"/><path fill="url(#M)" d="M958.36,388.21c12.58-2.6,15-2.78,40.74,2.38,80.06,16.59,145.72-36.94,175.78-28.34l.76-1.12c-30.31-31.49-94.15,35.92-160.9,20.38.28,0,0,0,.08,0-18.26-5.07-43.63-8.12-57.1,5.51Z"/><path fill="url(#N)" d="M945.51,435.06c57-32,45.31-1.25,200.45-46.65,0,0,.17,0,0,0,18.28-4.59,30.87-4.76,47.91,1.37l.77-1.12c-37-37.59-96.9.87-125.52,13.28-44.77,18.95-89.7-24-124.49,32.14Z"/><path fill="url(#O)" d="M938.15,464.25c31.53-25.64,42.94-1.75,66.89-6.9,18.45-3.51,27.67-15.23,58.55-17.94,87.87-6.8,91.27-42.65,126.24-29.26l.8-1.1C1159,375.94,1041.44,454.74,994.57,446c.08,0-.31-.05.16,0-24-6.17-47.57-7.53-57.66,17.41Z"/></g><path fill="#d24b52" d="M1149 928c-3.55 1.79 3.52 25 7.2 25.56 2.5.4 5.87-7.32 4.87-9.65C1158.6 938.19 1151.48 926.72 1149 928zM1093.35 934.33c3 4.17 4.8 8.46.24 9.68-4.75 1.27-27.11 1.77-27.52.16s21.06-6.9 23.26-8.91A4.06 4.06 0 011093.35 934.33z"/><path fill="url(#d)" d="M1088.78,937.06c.35,2.12,5.19.88,4.78-1-11.58-52.58,15.65-284.47-54.47-261.66C1033.15,712.93,1066.09,801.4,1088.78,937.06Z"/><path fill="url(#P)" d="M1152,932.85c-6.84-28.56-7.42-64.6-11.5-91.29-6.76-44.28,2-148-42-164.18-36.59-13.49,25.9,196.82,50.66,255.77C1152.21,940.39,1153.23,938,1152,932.85Z"/><path fill="#f16077" d="M1141.05,532.92c-7.26-41.44-43-92.55-43-92.55s-43.59,8.53-51.93,14.61c-31.83,53.32-41.36,133-48.88,248.26,13.4,12.86,160.45,16.67,173.26,0C1169.58,671.21,1144,549.89,1141.05,532.92Z"/><polygon fill="#d24b52" points="1104.95 452.41 1046.14 454.98 1045.97 442.11 1102.59 438.28 1104.95 452.41"/><polygon fill="url(#Q)" points="1071.36 286.71 1047.36 296.47 1025.94 244.91 1049.95 235.15 1071.36 286.71"/><path fill="url(#h)" d="M975.47,154.39s-6.36,47.16-1.78,63.83c-1.28,21.72,37.71,51.77,53.23,47.67,15.9-4.2,34.33-40,30.8-56.26-3.15-14.58-13.11-62.84-13.11-62.84Z"/><path fill="url(#f)" d="M1027.51,165.07c3.92,7.21,13.44,23.21,22.16,23.8,4,11,9.59,19.32,8.26,28.11,9.15-15.53,12.92-45.14,1.59-63.73-10.34-17-24.68-19.44-34.45-16.77C1018.21,138.35,1021.11,153.29,1027.51,165.07Z"/><path fill="url(#R)" d="M974.92,222c-20.32-23.09-15.46-43.53-3.67-64,13.17-22.87,40.87-35.52,53.82-21.48,6.51,7.06,7.77,17.24,2,27.68C1012.31,190.58,963.52,191.72,974.92,222Z"/><path fill="#755239" d="M1031.5 188.28c-6.88-7.55-22.35-4.39-22.58 5.77.86-1 .64-.91 1.61-1.88C1017.11 185.21 1027.64 187.79 1031.5 188.28zM991.05 195.1c-6.88-7.56-22.35-4.4-22.59 5.76.87-1 .65-.9 1.61-1.88C976.66 192 987.19 194.6 991.05 195.1z"/><path fill="#ffd7a8" d="M1049.63,187.89c1.29-10,8.4-7.19,10.16-4.12s3.47,28-3.33,22.24S1049.63,187.89,1049.63,187.89Z"/><path fill="#fff" d="M998.57,216.2c-5.39,8.24-12.83,11.47-19.57,10.8-3.73-.37-8-9.65-4.8-12.42C980.59,209,991.36,211.49,998.57,216.2Z"/><path fill="url(#g)" d="M988,217.46c1.39,4.51,0,8.77-3.23,9.51s-6.87-2.31-8.26-6.82.05-8.77,3.23-9.51S986.63,213,988,217.46Z"/><path fill="#fff" d="M984.14 222.83c-2.68.47-3.44-3.84-.77-4.31S986.81 222.35 984.14 222.83zM980.64 219c-2 .36-2.6-2.89-.58-3.24S982.66 218.65 980.64 219z"/><path fill="#62432d" d="M970.06,222.86c1.28-2,2.3-5.54,8.91-8.75,10-3.39,15.62.1,19.6,2.09C991.68,204.64,970.1,207.64,970.06,222.86Z"/><path fill="#fff" d="M1038.77,205.81c-5.79,8.84-13.76,12.29-21,11.58-4-.4-8.54-10.34-5.15-13.32C1019.49,198.07,1031,200.77,1038.77,205.81Z"/><path fill="url(#S)" d="M1027.69,207.29c1.44,4.72-.19,9.22-3.63,10s-7.4-2.34-8.84-7.06.18-9.22,3.63-10S1026.25,202.57,1027.69,207.29Z"/><path fill="#fff" d="M1023.45 212.87c-2.87.51-3.69-4.11-.82-4.61S1026.32 212.36 1023.45 212.87zM1019.7 208.77c-2.16.39-2.78-3.09-.62-3.48S1021.86 208.39 1019.7 208.77z"/><path fill="#62432d" d="M1008.21,213c1.37-2.15,2.46-5.94,9.55-9.38,10.73-3.64,16.74.1,21,2.24C1031.38,193.42,1008.25,196.63,1008.21,213Z"/><path fill="url(#T)" d="M1002.11,209.23c-1.19-1.75-6.2,21.19-4.65,22.79,1.33,1.38,10.17,2.77,10.87,1C1008.88,231.6,1004,212,1002.11,209.23Z"/><path fill="url(#T)" d="M1002.11,209.23c-1.19-1.75-6.2,21.19-4.65,22.79,1.33,1.38,10.17,2.77,10.87,1C1008.88,231.6,1004,212,1002.11,209.23Z"/><path fill="#fff" d="M1031.76,230.66s-14,13.73-27.11,12.54c1.54,3.66,12.86,4.63,14.39,3.76C1023.27,244.56,1030.07,235.45,1031.76,230.66Z"/><path fill="url(#U)" d="M1158.36,445.94c-20.44,39.43-21.13,58.42-28,76.38s-4.38,15.09,5.78,1.12c9-12.32,39.26-44.39,42.05-53.81,5.79-19.52,2.6-34.67,0-37.51S1164.76,433.6,1158.36,445.94Z"/><path fill="url(#V)" d="M1126.68,525.92c-5.17,1.94-11,8.13-12.87,9.05,1.27,1.85,5.84-1.51,5.15-.72-6.39,7.29-5.16,9.76-4.22,14.85.26,1.39,1.59.94,1.25-4.64.36,6,3,9.81,3.51,5.69-.16,1.35,1.71,1.23,2.19-.55,1,2.54,3.35-3.49,4.11-4.11,6.79-9,8.62-14.24,7-16.53C1130.05,525,1126.68,525.92,1126.68,525.92Z"/><path fill="url(#k)" d="M901.69,746.78c4.74-20.95,99.2-62,118.13-52s-41.28,64.66-73.91,69.92S901.69,746.78,901.69,746.78Z"/><path fill="url(#W)" d="M840.36,565.59c4.3,4.67,6.89,58.78,29.23,90,18.59,26,42.63,34.39,61.57,29.66,3.47-.87,14.5-25.34.73-44.29-22.15-30.5-65.33-43.84-84.86-79.25-1.47-2.67.17-5.52-1.17-8.84-2-5-7-10.6-9-13.84-1.14-1.82-1.32-4.5-2.1-4-7.08,4.2,3.11,11.49,1.71,13.59a4.14,4.14,0,0,1-2.25,1.45c-6,1.94-39.73-2.7-39.73-.9C794.49,553.59,831.12,555.54,840.36,565.59Z"/><path fill="url(#X)" d="M976.42,625.29s-22.63,59.28-45.26,60-38.86-15.09-29.47-41.95S976.42,625.29,976.42,625.29Z"/><path fill="url(#Y)" d="M908.69,446.29c-1.07,3-2.78,5.72-4,8.68s-1.84,6.32-.71,9.29a11.29,11.29,0,0,0,6.36,6,33.36,33.36,0,0,0,8.75,2,4.64,4.64,0,0,0,1.78,0,3.8,3.8,0,0,0,1.75-1.16,12.25,12.25,0,0,0,2.93-8.94,29.28,29.28,0,0,0-2.37-9.33,100.47,100.47,0,0,0-5-10.84C912.65,431.69,910.7,440.62,908.69,446.29Z"/><path fill="#4d1618" d="M910,453.32a3.54,3.54,0,0,1-1.66.81c-2.56.48-6.54-1.14-14.66-18.13l-.65-1.36,1.35-.66c2.74-1.34,12-5.62,15.36-4.46,3.23,1.09,3.13,13.36,3,15.57C912.46,449.26,911.55,452,910,453.32ZM897.1,436.06c7,14.32,10.06,15.09,10.61,15.1.36,0,.69-.49.9-.91,2.16-4.29,1-15.78-.08-17.92C906.8,432.15,901.65,434,897.1,436.06Z"/><path fill="url(#Z)" d="M898.66,386.34s-1.13,29.39,4.09,35c4.31,4.62,11.14,22.81,11,27.69-.2,6.65-4.9,11.5,4,30.9,7.9,17.24,25.65,32.08,31.36,32.16,13.85.2,24.19-16.55,26.61-22,3.74-8.44,17.24-48.16,19-60,4.27-28.56-8.36-58.31-33.88-70.59C930.33,344.79,900.94,373.11,898.66,386.34Z"/><path fill="url(#aa)" d="M991.52,531.7c15.31,7.7,62.78-31.15,53.75-35.57-22.41-11-34.79-32.95-56.17-71.79-10-18.09-50.66,6.53-31.22,36.49C975.62,488.17,987.46,529.65,991.52,531.7Z"/><path fill="url(#i)" d="M900.28,382.55c6.38-.5,24.53,15.39,28.91,27.3s10.9,35.28,11.87,29.32,3.1-17.22,8.88-15.71c12.08,3.14,3.58,19.66,3.31,22.39S980.93,457.4,991,457.16c2.88-.07,14.71-3.62,13.18-16.59s5.92-50.36-3.69-65.5c-8-12.53-52.71-37.2-65.79-31.62-19.76,8.43-38.73,13.49-47.91,27.87-6.36,10,4.77-2.5,11.31-4.66-10,9-14.82,22.48-13,24.07C886.71,392.16,893.2,383.11,900.28,382.55Z"/><rect width="39.91" height="3.03" x="895.04" y="432.73" fill="#4d1618" transform="rotate(-3.15 914.723 434.067)"/><path fill="url(#ab)" d="M896.11,411.14c3.81-3.38,18.91,7.54,18.91,7.54s-13,4-16.44,1.67C896.62,419,894.33,412.72,896.11,411.14Z"/><path fill="url(#j)" d="M1107.23,583.47c-6.76,31.93-34.87,154-72.92,167.71-13.45,4.86-45.83-39-49.88-54.78C970,640.16,932.42,612.19,918,577c13-33.69,29.06-59.2,61.28-72.63,15.36,10.59,61.87,7.2,60.61-11.18C1105,497.69,1110.75,566.85,1107.23,583.47Z"/><path fill="url(#ac)" d="M771.38,920.4c-.5,13.92,18.44,27.4,29.85,24,3-.91,6.76-6.1,4.18-9.54C798.6,925.69,771.6,914.05,771.38,920.4Z"/><path fill="#d34259" d="M760.22 949.67s17.9-1 25.76-4.95c4.2-2.09 6.69-4.82 9.26-6.48 2 2.37 7 3.73 10 3.4.79 4.21-1.08 9.61-3.7 9.46C778.85 949.8 760.22 953.22 760.22 949.67zM973.07 539.92c42.57 16 3.35 103.94-10.77 123.43-3.13 4.31-51.95-13.81-55.95-31.15C901 608.81 928.38 523.17 973.07 539.92z"/><path fill="url(#ad)" d="M869.85,865.8c-6.8,8.45-54.94,69.78-64.62,75.84-5.84,2.4-16.54-8-15-9.51C814.91,907.62,870.31,783.29,876.4,773s51.07-38.53,57.77-28.66C954.29,774,886.53,845.07,869.85,865.8Z"/><path fill="url(#ae)" d="M846.69,759.58c-9.51,14-51.3,168.32-49.67,164.43,18.36-26,92.13-112.65,93.44-133.13.23-3.52,70.22-4.53,91.23-10.43,51.06-14.33,50.6-64.8-4.58-65.55C922.21,714.15,856.54,745.09,846.69,759.58Z"/><polygon fill="url(#l)" points="563.37 707.91 504.17 1005.71 483.41 1005.71 526.82 713.29 563.37 707.91"/><polygon fill="url(#af)" points="785.14 707.91 844.34 1005.71 865.1 1005.71 821.68 713.29 785.14 707.91"/><polygon fill="url(#ag)" points="1104.69 734.66 1129.05 989.11 1125.7 988.28 1085.42 725.83 1104.69 734.66"/><polygon fill="url(#ah)" points="998.57 717.04 940.29 974.83 943.83 974.4 1019.49 710.5 998.57 717.04"/><polygon fill="url(#ai)" points="1076.11 735.6 1032.87 987.53 1029.86 985.85 1059.82 722.02 1076.11 735.6"/><path fill="#9d94e6" d="M1124.39,528.15c-51-9.15-81.42,55.92-100.5,127.15-18.82,70.28-145.32,70.94-92.8,128.42,18.37,20.11,172,25.25,222.76-14.19C1214.62,722.29,1187.08,539.4,1124.39,528.15Z"/><rect width="541.83" height="38.48" x="417.01" y="690.69" fill="url(#aj)" transform="rotate(180 687.925 709.935)"/><path fill="url(#ak)" d="M577.75,609.91c-1.92-8.36-69.89-17.55-61.43-.24,7.32,15,2.46,35.59.78,39.31S489.45,802.32,494,817.58s20.61,21.55,28.56,13.78S598.22,698.81,577.75,609.91Z"/><path fill="url(#m)" d="M597.61,575.81c-10.17-42-40.89-72-69.71-45.75-7,6.42-4.29,32.25-9.86,38.79-26.52,31.16.09,60.87,20.38,68.78,21.08,8.22,60.11-1.42,64.28,0S597.21,601.48,597.61,575.81Z"/><path fill="url(#al)" d="M594.05,612.15c-15.37-24.32-58.61-5.8-58.22-1.42s12.31,156,44.59,203.3c8.35,12.23,31.82,2.3,34.89-9.07S628.25,660.61,594.05,612.15Z"/><path fill="url(#n)" d="M577.41,469.54c9.42,19.09,36.38,67.18,53.88,79.07,18.49,12.57,59.88,15.27,104.67,4.1,2-5.66-.81-12.14-5.32-16.12-5.91-5.23-72-27.4-76-30.92-7.76-7-26.57-73.2-43.86-88.76-7.53-6.77-14.43-12.46-25.46-10.33C551.35,413.16,571.3,457.18,577.41,469.54Z"/><path fill="url(#am)" d="M609.6,350.08c-23.68-6-55.49,34.2-63.08,54.27-23.13,61.16-5,95.2-23.71,156.68,5.9,10.09,51,30.9,75.79,25.21,13.95-28,11.46-64.6,30.09-104.07C646.87,443.64,667.72,364.88,609.6,350.08Z"/><path fill="url(#an)" d="M553.31,415.32c-12.32,18.47-41.19,68-44,89.93-2.44,19.43,15.2,62.15,46.5,96.88,6-1.09,11.89-3.93,13.24-10.08,1.78-8.08-11.89-82.6-10.65-88,2.46-10.67,51.85-62.15,57.3-85.91,2.37-10.34,4.08-19.55-3.08-28.43C590.58,362.38,561.3,403.35,553.31,415.32Z"/><path fill="url(#q)" d="M573.53,839.34c-16.31,49.65,29.6,107.55,36.11,181.76,6.38-1.16,14.33-1.05,15.71-6.9-2.11-13.22-11-73.35-11-92.79.21-56.46.68-83.74,1.91-98.08,1.11-13-1.63-31.67-11.68-35.92S576.68,829.75,573.53,839.34Z"/><path fill="#725c9e" d="M633,349.11c2.77,6.27,7.13,23.43,3.29,27a43.89,43.89,0,0,0-4.59-13.39A89,89,0,0,0,633,349.11Z"/><path fill="url(#o)" d="M695.88,315.53c-2.71.57,9.68,19,10.41,25.9.87,8.23-15,12.09-24.31,6-1.38-.21,7.56-33.2,15-33.92C698.82,313.31,692,316.32,695.88,315.53Z"/><path fill="#eb8c2c" d="M700.32 252.45c-4.6-28-29.63-44.14-38.47-36.32-7.74 6.85 4.74 30.35 24.5 41.81C692.26 261.37 700.32 252.45 700.32 252.45zM650.34 231.37c-14.83-13.11-35.44-10.78-36.77-2.67-1.16 7.11 15.92 14.3 31.64 11.79C649.91 239.74 650.34 231.37 650.34 231.37zM627.3 240.5c-19.79.15-33.58 15.65-29.15 22.57 3.88 6.07 21.4 0 31.42-12.36C632.57 247 627.3 240.5 627.3 240.5z"/><path fill="url(#ao)" d="M695.59,295.94c38.29-31.11,11.34-70.4,2.82-65.41-5.46,3.19.71,17.83-.47,24-2.52-15.51-12.09-20.76-10.23-8.43-6.53-19.49-21.82-24.34-22.48-10.46-1.9-12.7-22.15-24-31.06-19.9-7.29,3.34,1.55,14.2,5,18.09-8-6.15-27.77-8.37-34.08-1-3.32,3.88-1.61,10.57,6.54,14.18-17.93,15.36-9.74,71.38,2.19,89.4,1.61,2.43,26.89,11.42,50.87-1.64C682.13,325.22,695.59,295.94,695.59,295.94Z"/><path fill="url(#ap)" d="M663.73,308.48c1,.52,5.32,1,7.49.75,5.31-.29-6.12-18.05,3.56-27,4.07-3.77,23.37-5.15,25.94-.32,4.76,8.94,4.85,34.11,0,37.37-7.48,5,3.13,14.45-2.21,21.14-13.89,17.44-30.15,28-39.8,28.17-5.16.12-13.09-3.22-18.93-14.86-2.49,4.54-14.36,15.28-22.74,16.42-12.59,1.71-25.34-10-23.09-20.59,9.31-7.9,13.31-16.35,19.61-21.69,12.92-2,32.63-9.23,33.2-13.3-3.26-5.9,0-15,1-16.31C651.43,293.77,661.42,290.62,663.73,308.48Z"/><path fill="url(#aq)" d="M653.22,336.51a158.08,158.08,0,0,1-13.48,17.2,34.37,34.37,0,0,0,12.63,13.47C660.68,361.56,653.22,336.51,653.22,336.51Z"/><path fill="url(#p)" d="M709.38,302.84c.88,1.64.61,4.61-2.67,9.52.87-2.08,3.23-8.23,1.78-9.61-4.93-.2-20.35,11-15,11.47a59.48,59.48,0,0,0,12.11.07C708.41,313.52,712.36,303.32,709.38,302.84Z"/><path fill="url(#ar)" d="M656.94,302.51c-3.89-4.33-7.14.06-7.29,3.05-.26,5.29,4.11,12.33,5.52,11.72s-.55-3.11,1.05-4.07,3.81,4.31,4.77.81S658.76,304.52,656.94,302.51Z"/><path fill="#fff" d="M694.47,321.12a21.12,21.12,0,0,0,6.21-1.86,11.37,11.37,0,0,1-2.76,5.7A16.84,16.84,0,0,1,694.47,321.12Z"/><path fill="url(#as)" d="M699.64,322a6.3,6.3,0,0,1-1.25,2.56c-.32.4-.75.34-.72-.1.07-.94-.34-1.33,1.41-2.84C699.43,321.33,699.78,321.57,699.64,322Z"/><path fill="url(#at)" d="M694.47,321.12s6-3.24,8.12-2.16S694.47,321.12,694.47,321.12Z"/><path fill="url(#r)" d="M609.65,1021.16c12.92-1.83,40.29,1.65,40.29-.79,0-2.6-26.19-8.65-32.19-13.24C613.75,1008,602.48,1022.18,609.65,1021.16Z"/><path fill="url(#au)" d="M478.49,834.69c-35.87,60.44-12.78,95.43-37.12,165.83,6.29,1.55,13.5,4.89,17.15.12,3.48-12.93,19.87-71.47,27.87-89.19,23.23-51.46,32.31-68.4,39.29-81,6.32-11.41,5.66-27.57-1.78-35.55S486.81,820.67,478.49,834.69Z"/><path fill="url(#av)" d="M441.35,1000.58c12.54,3.6,36.11,17.95,37.1,15.72s-20.38-18.58-24-25.22C450.45,990.27,434.39,998.58,441.35,1000.58Z"/><path fill="#725c9e" d="M598.53,345.18c5,10.63,18.72,22.37,33.21,17.53-4.38,8.05-6.35,20.79-5.07,22.24C620,386.9,585,373.46,578.25,359.77,584.43,352.6,590.7,349.11,598.53,345.18Z"/><path fill="url(#aw)" d="M738.25,535.75c4.84,1.37,22,11.36,22,11.36.76,1.34-1.11,3.51-2.52,2.86,0,0-1.44-1.23-5.81-2.24.24,2.95-8.43,5.21-11.45,5-1.94-.12-2.69-1.78-8-3.73-4.65-.11-10.47.68-12,.3-3.82-.93-5.64-6.57-3.63-10C725.77,539,735.22,534.9,738.25,535.75Z"/><path fill="url(#ax)" d="M552.29,627.9c-2,10.9,11.4,24.42,14.6,20.55,4.9-5.91,11.55-17,11.55-35.36,0-7-1.5-16.53-6.65-16S555.33,611.07,552.29,627.9Z"/><path fill="url(#ay)" d="M567.31,593c6.37,4.55,8.74,8.65,10,14.47s-4.68,25.27-8.89,25.24-6.35-8.83-6.86-13.49-5.79-10.7-3.89-18.18S567.31,593,567.31,593Z"/></svg>