<svg xmlns="http://www.w3.org/2000/svg" xmlns:xlink="http://www.w3.org/1999/xlink" viewBox="0 0 1600 1200"><defs><linearGradient id="x" x1="342.01" x2="1291.51" y1="458.44" y2="458.44" gradientUnits="userSpaceOnUse"><stop offset="0" stop-color="#fff8fb"/><stop offset=".63" stop-color="#d4ddfd"/><stop offset="1" stop-color="#b8cbff"/></linearGradient><linearGradient id="b" x1="866.8" x2="1033.47" y1="519.38" y2="519.38" gradientUnits="userSpaceOnUse"><stop offset="0" stop-color="#c2c7ff"/><stop offset="1" stop-color="#d3d7ff"/></linearGradient><linearGradient id="a" x1="973.62" x2="1063.29" y1="545.94" y2="545.94" gradientUnits="userSpaceOnUse"><stop offset="0" stop-color="#ff546f"/><stop offset="1" stop-color="#ffe05c"/></linearGradient><linearGradient id="y" x1="973.62" x2="1063.29" y1="574.12" y2="574.12" xlink:href="#a"/><linearGradient id="z" x1="973.62" x2="1063.29" y1="574.12" y2="574.12" xlink:href="#a"/><linearGradient id="A" x1="973.62" x2="1063.29" y1="602.31" y2="602.31" xlink:href="#a"/><linearGradient id="B" x1="973.62" x2="1063.29" y1="602.31" y2="602.31" xlink:href="#a"/><linearGradient id="C" x1="973.62" x2="1063.29" y1="630.5" y2="630.5" xlink:href="#a"/><linearGradient id="D" x1="973.62" x2="1063.29" y1="630.5" y2="630.5" xlink:href="#a"/><linearGradient id="E" x1="973.62" x2="1063.29" y1="658.68" y2="658.68" xlink:href="#a"/><linearGradient id="F" x1="973.62" x2="1063.29" y1="658.68" y2="658.68" xlink:href="#a"/><linearGradient id="G" x1="605.48" x2="810.7" y1="517.26" y2="517.26" xlink:href="#b"/><linearGradient id="H" x1="605.48" x2="810.7" y1="534.43" y2="534.43" xlink:href="#b"/><linearGradient id="I" x1="605.48" x2="810.7" y1="542.51" y2="542.51" xlink:href="#b"/><linearGradient id="J" x1="1092.76" x2="1145.91" y1="674.72" y2="674.72" xlink:href="#b"/><linearGradient id="c" x1="1175.64" x2="1273.71" y1="674.72" y2="674.72" gradientUnits="userSpaceOnUse"><stop offset="0" stop-color="#d7dcff"/><stop offset="1" stop-color="#e7eaff"/></linearGradient><linearGradient id="K" x1="1174.57" x2="1225.47" y1="674.72" y2="674.72" xlink:href="#a"/><linearGradient id="L" x1="1092.76" x2="1156.33" y1="646.54" y2="646.54" xlink:href="#b"/><linearGradient id="M" x1="1175.64" x2="1273.71" y1="646.54" y2="646.54" xlink:href="#c"/><linearGradient id="N" x1="1174.57" x2="1200.86" y1="646.54" y2="646.54" xlink:href="#a"/><linearGradient id="O" x1="1092.76" x2="1143.9" y1="618.35" y2="618.35" xlink:href="#b"/><linearGradient id="P" x1="1175.64" x2="1273.71" y1="618.35" y2="618.35" xlink:href="#c"/><linearGradient id="Q" x1="1174.57" x2="1257.25" y1="618.35" y2="618.35" xlink:href="#a"/><linearGradient id="R" x1="1092.76" x2="1148.72" y1="590.16" y2="590.16" xlink:href="#b"/><linearGradient id="S" x1="1175.64" x2="1273.71" y1="590.16" y2="590.16" xlink:href="#c"/><linearGradient id="T" x1="1174.57" x2="1220.89" y1="590.16" y2="590.16" xlink:href="#a"/><linearGradient id="U" x1="1092.49" x2="1156.07" y1="558.49" y2="558.49" xlink:href="#b"/><linearGradient id="V" x1="1175.37" x2="1273.45" y1="558.49" y2="558.49" xlink:href="#c"/><linearGradient id="W" x1="1174.3" x2="1243.08" y1="558.49" y2="558.49" xlink:href="#a"/><linearGradient id="X" x1="1140.67" x2="1275.7" y1="534.43" y2="534.43" xlink:href="#b"/><linearGradient id="Y" x1="1159.67" x2="1275.7" y1="516.2" y2="516.2" xlink:href="#b"/><linearGradient id="d" x1="648.49" x2="648.49" y1="476" y2="289.67" gradientUnits="userSpaceOnUse"><stop offset="0" stop-color="#dfdcfa"/><stop offset="1" stop-color="#fff"/></linearGradient><linearGradient id="Z" x1="680.41" x2="680.41" y1="476" y2="289.67" xlink:href="#d"/><linearGradient id="aa" x1="712.33" x2="712.33" y1="476" y2="289.67" xlink:href="#d"/><linearGradient id="ab" x1="744.24" x2="744.24" y1="476" y2="289.67" xlink:href="#d"/><linearGradient id="ac" x1="776.16" x2="776.16" y1="476" y2="289.67" xlink:href="#d"/><linearGradient id="ad" x1="808.08" x2="808.08" y1="476" y2="289.67" xlink:href="#d"/><linearGradient id="ae" x1="839.99" x2="839.99" y1="476" y2="289.67" xlink:href="#d"/><linearGradient id="af" x1="692.75" x2="692.75" y1="273.89" y2="259.27" xlink:href="#b"/><linearGradient id="ag" x1="717.05" x2="717.05" y1="286.96" y2="282.06" xlink:href="#b"/><linearGradient id="ah" x1="697.68" x2="697.68" y1="295.66" y2="290.76" xlink:href="#b"/><linearGradient id="ai" x1="870.4" x2="1035.76" y1="225.61" y2="225.61" gradientTransform="translate(31.87 108.3)" xlink:href="#b"/><linearGradient id="aj" x1="869.41" x2="1062.69" y1="244.97" y2="244.97" gradientTransform="translate(31.87 108.3)" xlink:href="#b"/><linearGradient id="ak" x1="942.34" x2="942.34" y1="404.8" y2="329.1" gradientTransform="translate(5.09 45.67)" xlink:href="#b"/><linearGradient id="al" x1="989.73" x2="989.73" y1="404.8" y2="330.42" gradientTransform="translate(5.09 45.67)" xlink:href="#b"/><linearGradient id="am" x1="1037.12" x2="1037.12" y1="404.79" y2="339.13" gradientTransform="translate(5.09 45.67)" xlink:href="#b"/><linearGradient id="an" x1="1084.51" x2="1084.51" y1="404.79" y2="315.8" gradientTransform="translate(5.09 45.67)" xlink:href="#b"/><linearGradient id="ao" x1="1131.9" x2="1131.9" y1="404.79" y2="330.41" gradientTransform="translate(5.09 45.67)" xlink:href="#b"/><linearGradient id="n" x1="1179.29" x2="1179.29" y1="404.79" y2="341.57" gradientTransform="translate(5.09 45.67)" gradientUnits="userSpaceOnUse"><stop offset="0" stop-color="#cecaf5"/><stop offset="1" stop-color="#dbcff3"/></linearGradient><linearGradient id="ap" x1="1226.69" x2="1226.69" y1="404.78" y2="330.41" gradientTransform="translate(5.09 45.67)" xlink:href="#b"/><linearGradient id="aq" x1="1274.08" x2="1274.08" y1="404.78" y2="262.85" gradientTransform="translate(5.09 45.67)" xlink:href="#b"/><linearGradient id="e" x1="-4894.82" x2="-4896.5" y1="814.89" y2="1229.72" gradientTransform="rotate(1.74 -1563.349 175648.14)" gradientUnits="userSpaceOnUse"><stop offset="0" stop-color="#bda5f5"/><stop offset=".45" stop-color="#dccbf6"/><stop offset="1" stop-color="#fff6f7"/></linearGradient><linearGradient id="at" x1="-4819.05" x2="-4820.79" y1="796.94" y2="1225.85" xlink:href="#e"/><linearGradient id="au" x1="-4849.59" x2="-4851.27" y1="815.07" y2="1229.9" xlink:href="#e"/><linearGradient id="f" x1="-971.55" x2="-960.51" y1="746.86" y2="763.75" gradientTransform="translate(1361.87)" gradientUnits="userSpaceOnUse"><stop offset=".04" stop-color="#d29560"/><stop offset="1" stop-color="#c17c3f"/></linearGradient><linearGradient id="av" x1="445.61" x2="488.42" y1="562.19" y2="479.77" gradientTransform="rotate(6.93 -33.993 -20.734)" gradientUnits="userSpaceOnUse"><stop offset="0" stop-color="#b067a3"/><stop offset="1" stop-color="#362032"/></linearGradient><linearGradient id="aw" x1="-916.9" x2="-914.21" y1="621.3" y2="609.04" xlink:href="#f"/><linearGradient id="ax" x1="1544.06" x2="1576.96" y1="744.77" y2="757.42" gradientTransform="translate(-1073.98)" gradientUnits="userSpaceOnUse"><stop offset="0" stop-color="#c17c3f"/><stop offset=".96" stop-color="#d29560"/></linearGradient><linearGradient id="ay" x1="-1015.13" x2="-839.69" y1="730.62" y2="708.48" gradientTransform="translate(1361.87)" gradientUnits="userSpaceOnUse"><stop offset="0" stop-color="#ff307c"/><stop offset=".17" stop-color="#ff5f6c"/><stop offset=".32" stop-color="#ff8261"/><stop offset=".44" stop-color="#ff975a"/><stop offset=".52" stop-color="#ff9f57"/><stop offset="1" stop-color="#ffe263"/></linearGradient><linearGradient id="g" x1="5152.32" x2="5161.25" y1="1526.18" y2="1535.46" gradientTransform="matrix(-.78 -.19 -.1 .89 4643.7 192.65)" gradientUnits="userSpaceOnUse"><stop offset=".01" stop-color="#3b0037"/><stop offset="1" stop-color="#72005a"/></linearGradient><linearGradient id="az" x1="5072.56" x2="5082.04" y1="1530.18" y2="1540.03" gradientTransform="matrix(-.8 -.23 -.17 .88 4737.58 396.38)" xlink:href="#g"/><linearGradient id="h" x1="-4826.51" x2="-4680.71" y1="699.57" y2="699.57" gradientTransform="matrix(.99 -.11 .11 .99 5167.27 -442.36)" gradientUnits="userSpaceOnUse"><stop offset="0" stop-color="#75649c"/><stop offset="1" stop-color="#9d97de"/></linearGradient><linearGradient id="aA" x1="-4751.67" x2="-4644.99" y1="658.23" y2="658.23" xlink:href="#h"/><linearGradient id="w" x1="685.83" x2="681.24" y1="500.67" y2="469.13" gradientUnits="userSpaceOnUse"><stop offset="0" stop-color="#ffd3b0"/><stop offset=".28" stop-color="#fdcfaa"/><stop offset=".65" stop-color="#f6c29a"/><stop offset=".99" stop-color="#edb285"/></linearGradient><linearGradient id="j" x1="644.19" x2="713.83" y1="421.92" y2="421.92" gradientUnits="userSpaceOnUse"><stop offset="0" stop-color="#f6b98a"/><stop offset="1" stop-color="#ffd3b0"/></linearGradient><linearGradient id="aE" x1="695.38" x2="715.85" y1="429.39" y2="422.57" xlink:href="#j"/><linearGradient id="o" x1="708.5" x2="720.35" y1="424.11" y2="424.11" gradientUnits="userSpaceOnUse"><stop offset="0" stop-color="#ffd3b0"/><stop offset="1" stop-color="#f6b98a"/></linearGradient><linearGradient id="aI" x1="641.48" x2="676.28" y1="855.52" y2="852.26" xlink:href="#m"/><linearGradient id="aJ" x1="666.02" x2="675.91" y1="604.35" y2="606.23" gradientTransform="rotate(-7 1338.37 736.318)" xlink:href="#m"/><linearGradient id="aK" x1="639.6" x2="697.13" y1="663.02" y2="663.02" xlink:href="#m"/><linearGradient id="aS" x1="-174.1" x2="35.86" y1="724.94" y2="724.94" gradientTransform="translate(1153.89)" xlink:href="#h"/><linearGradient id="aT" x1="-186.71" x2="17.36" y1="632.73" y2="632.73" gradientTransform="matrix(-1 0 0 1 914.32 0)" xlink:href="#h"/><linearGradient id="aU" x1="844.45" x2="915.32" y1="538.39" y2="538.39" gradientTransform="translate(31.87 108.3)" xlink:href="#b"/><linearGradient id="aV" x1="845.22" x2="928.09" y1="549.87" y2="549.87" gradientTransform="translate(31.87 108.3)" xlink:href="#b"/><linearGradient id="aW" x1="933.05" x2="933.05" y1="641.83" y2="597.87" gradientTransform="translate(5.09 45.67)" xlink:href="#b"/><linearGradient id="aX" x1="953.59" x2="953.59" y1="641.98" y2="599.31" gradientTransform="translate(5.09 45.67)" xlink:href="#b"/><linearGradient id="aY" x1="974.42" x2="974.42" y1="642.13" y2="604.93" gradientTransform="translate(5.09 45.67)" xlink:href="#b"/><linearGradient id="aZ" x1="994" x2="994" y1="642.28" y2="592.52" gradientTransform="translate(5.09 45.67)" xlink:href="#b"/><linearGradient id="ba" x1="1015.06" x2="1015.06" y1="642.44" y2="601.36" gradientTransform="translate(5.09 45.67)" xlink:href="#b"/><linearGradient id="bb" x1="1035.99" x2="1035.99" y1="642.59" y2="608.12" xlink:href="#n"/><linearGradient id="bc" x1="1056.04" x2="1056.04" y1="642.74" y2="602.73" gradientTransform="translate(5.09 45.67)" xlink:href="#b"/><linearGradient id="bd" x1="1073.81" x2="1073.81" y1="642.89" y2="567.6" gradientTransform="translate(5.09 45.67)" xlink:href="#b"/><linearGradient id="bh" x1="1781.25" x2="1839.18" y1="756.88" y2="756.88" gradientTransform="matrix(-1 0 0 1 2909.61 0)" xlink:href="#j"/><linearGradient id="bi" x1="2086.21" x2="2102.6" y1="-53.25" y2="-53.25" gradientTransform="matrix(-.96 .3 .3 .96 3160.78 41.18)" xlink:href="#j"/><linearGradient id="bk" x1="2022.92" x2="2057.76" y1="-28.42" y2="-19.13" gradientTransform="matrix(-.96 .3 .3 .96 3160.78 41.18)" xlink:href="#j"/><linearGradient id="p" x1="2013.38" x2="2099.99" y1="-82" y2="-82" gradientTransform="matrix(-.96 .3 .3 .96 3160.78 41.18)" gradientUnits="userSpaceOnUse"><stop offset="0" stop-color="#be3e00"/><stop offset=".98" stop-color="#d87209"/></linearGradient><linearGradient id="bl" x1="2084.67" x2="2097.67" y1="-84.37" y2="-84.37" xlink:href="#p"/><linearGradient id="bq" x1="2625.98" x2="2579.35" y1="822.23" y2="1233.53" gradientTransform="matrix(-1 0 0 1 2909.61 0)" xlink:href="#e"/><linearGradient id="br" x1="-2208.9" x2="-2255.52" y1="822.23" y2="1233.53" gradientTransform="translate(3296.8)" gradientUnits="userSpaceOnUse"><stop offset="0" stop-color="#d6beff"/><stop offset=".32" stop-color="#e4d4ff"/><stop offset="1" stop-color="#fff"/></linearGradient><linearGradient id="bs" x1="-2403.58" x2="-2405.16" y1="899.27" y2="1290.7" gradientTransform="matrix(-.99 -.16 -.16 .99 -926.74 -467.25)" xlink:href="#e"/><linearGradient id="bt" x1="-2459.48" x2="-2461.12" y1="685.43" y2="1090.17" gradientTransform="matrix(-.99 .11 .11 .99 -1199.06 392.16)" xlink:href="#e"/><linearGradient id="bu" x1="-2311.18" x2="-2312.82" y1="746.16" y2="1150.91" gradientTransform="matrix(-1 .03 .03 1 -1141.99 128.46)" xlink:href="#e"/><linearGradient id="bv" x1="-2372.06" x2="-2373.65" y1="981.96" y2="1373.41" gradientTransform="scale(-1 1) rotate(-16.3 -2554.7 -2925.35)" xlink:href="#e"/><linearGradient id="bw" x1="1731.41" x2="2682.76" y1="798.26" y2="798.26" gradientTransform="matrix(1 0 0 -1 -1504.56 1596.52)" gradientUnits="userSpaceOnUse"><stop offset="0" stop-color="#fff6f7"/><stop offset=".55" stop-color="#dccbf6"/><stop offset="1" stop-color="#bda5f5"/></linearGradient><linearGradient id="bC" x1="1206.1" x2="1206.42" y1="861.28" y2="841.44" gradientTransform="rotate(8.66 3310.447 -895.006)" xlink:href="#s"/><linearGradient id="bD" x1="1130.62" x2="1211.87" y1="823.72" y2="794.38" gradientTransform="rotate(8.66 3310.447 -895.006)" gradientUnits="userSpaceOnUse"><stop offset="0" stop-color="#ff8f1b"/><stop offset=".98" stop-color="#ffbe61"/></linearGradient><linearGradient id="bE" x1="-51.65" x2="-20.4" y1="516.62" y2="525.76" gradientTransform="matrix(-.84 -.55 -.55 .84 1217.45 57.34)" xlink:href="#s"/><linearGradient id="bF" x1="1157.97" x2="1171" y1="548.33" y2="540.09" gradientTransform="rotate(39.49 1074.317 206.405)" xlink:href="#s"/><linearGradient id="t" x1="1201.4" x2="1213.86" y1="829.04" y2="829.04" gradientTransform="rotate(8.66 3310.447 -895.006)" gradientUnits="userSpaceOnUse"><stop offset="0" stop-color="#e16f00"/><stop offset=".98" stop-color="#f89e42"/></linearGradient><linearGradient id="bI" x1="-39.58" x2="-35.07" y1="507.09" y2="507.09" gradientTransform="matrix(-.84 -.55 -.55 .84 1217.45 57.34)" xlink:href="#t"/><linearGradient id="v" x1="778.25" x2="810.13" y1="1020.67" y2="1020.67" gradientTransform="translate(123.27)" gradientUnits="userSpaceOnUse"><stop offset="0" stop-color="#cc791b"/><stop offset="1" stop-color="#e8ad4d"/></linearGradient><linearGradient id="bK" x1="671.42" x2="703.31" y1="806.6" y2="806.6" gradientTransform="rotate(24.09 259.555 1155.212)" xlink:href="#v"/><linearGradient id="bM" x1="186.12" x2="202.5" y1="714.06" y2="714.06" gradientTransform="matrix(-.97 -.23 -.23 .97 1225.27 70.57)" xlink:href="#w"/><radialGradient id="aB" cx="-4698.7" cy="656.56" r="5.25" gradientTransform="matrix(.99 -.11 .11 .99 5167.27 -442.36)" gradientUnits="userSpaceOnUse"><stop offset=".06" stop-color="#b7cdce"/><stop offset="1" stop-color="#cbdfe0"/></radialGradient><radialGradient id="i" cx="643.41" cy="582.16" r="57.18" gradientUnits="userSpaceOnUse"><stop offset=".02" stop-color="#b42d34"/><stop offset="1" stop-color="#d34259"/></radialGradient><radialGradient id="aC" cx="729.88" cy="618.76" r="82.88" xlink:href="#i"/><radialGradient id="k" cx="653.82" cy="288.18" r="3.45" gradientTransform="matrix(1 0 0 1.23 0 69.33)" gradientUnits="userSpaceOnUse"><stop offset=".01" stop-color="#4f2e00"/><stop offset="1" stop-color="#986f00"/></radialGradient><radialGradient id="aG" cx="556.13" cy="550.14" r="4.83" gradientTransform="matrix(.75 .39 -.3 1.14 425.05 -418.38)" xlink:href="#k"/><radialGradient id="l" cx="699.65" cy="580.12" r="60.39" gradientUnits="userSpaceOnUse"><stop offset=".01" stop-color="#25246d"/><stop offset="1" stop-color="#595a94"/></radialGradient><radialGradient id="aH" cx="654.3" cy="578.69" r="60.3" xlink:href="#l"/><radialGradient id="m" cx="-2467.92" cy="-2570.09" r="24.12" gradientTransform="matrix(.95 -.31 .68 1.91 4751.42 4889.92)" gradientUnits="userSpaceOnUse"><stop offset="0" stop-color="#332748"/><stop offset=".97" stop-color="#3c3151"/></radialGradient><radialGradient id="aL" cx="-890.54" cy="-5649.58" r="11.75" gradientTransform="matrix(.98 -.18 .88 4.91 6562.52 28388.4)" xlink:href="#m"/><radialGradient id="aM" cx="-878.67" cy="-5629.57" r="11.76" gradientTransform="matrix(.98 -.18 .88 4.91 6562.52 28388.4)" gradientUnits="userSpaceOnUse"><stop offset="0" stop-color="#444"/><stop offset=".97" stop-color="#b0b0b0"/></radialGradient><radialGradient id="aN" cx="-11425.82" cy="-2094.83" r="13.56" gradientTransform="matrix(.96 -.28 .59 1.9 12891.82 1492.4)" gradientUnits="userSpaceOnUse"><stop offset="0" stop-color="#332748"/><stop offset=".68" stop-color="#382d4d"/><stop offset=".97" stop-color="#3c3151"/></radialGradient><radialGradient id="aO" cx="890.94" cy="-266.08" r="44.19" gradientTransform="rotate(86.61 303.278 38.473)" xlink:href="#j"/><radialGradient id="aP" cx="651.78" cy="563.75" r="8.36" xlink:href="#j"/><radialGradient id="aQ" cx="1073.38" cy="111.58" r="57.04" gradientTransform="rotate(114.54 734.019 261.647)" xlink:href="#j"/><radialGradient id="aR" cx="1141.12" cy="282.72" r="14.04" gradientTransform="rotate(97.87 780.847 251.514)" xlink:href="#j"/><radialGradient id="q" cx="1723.01" cy="796.92" r="33.13" gradientTransform="matrix(-1 0 0 1 2909.61 0)" gradientUnits="userSpaceOnUse"><stop offset="0" stop-color="#4d3581"/><stop offset="1" stop-color="#5a53a2"/></radialGradient><radialGradient id="bg" cx="5108.49" cy="-7567.45" r="18.6" gradientTransform="matrix(-.75 .66 1.67 1.89 17594.28 11676.28)" xlink:href="#o"/><radialGradient id="bj" cx="2063.75" cy="-14.75" r="23.06" gradientTransform="matrix(-.96 .3 .3 .96 3160.78 41.18)" xlink:href="#j"/><radialGradient id="bm" cx="1720.19" cy="753.86" r="63.81" gradientTransform="matrix(-1 0 0 1 2909.61 0)" xlink:href="#i"/><radialGradient id="bn" cx="1964.92" cy="849.22" r="11.58" gradientTransform="matrix(-.96 .29 .29 .96 2690.06 -409.06)" xlink:href="#i"/><radialGradient id="bo" cx="1690.47" cy="943.07" r="65.79" gradientTransform="matrix(-.97 -.23 -.23 .97 2979.42 330.71)" xlink:href="#q"/><radialGradient id="bp" cx="-10276.75" cy="-10119.07" r="15.02" gradientTransform="matrix(.83 .56 2.72 -3.98 37194.15 -33599.82)" xlink:href="#q"/><radialGradient id="bx" cx="1359.86" cy="889.57" r="66.1" gradientTransform="matrix(-.09 1 -1 -.09 1871.9 -514.43)" gradientUnits="userSpaceOnUse"><stop offset=".01" stop-color="#34355b"/><stop offset="1" stop-color="#595a94"/></radialGradient><radialGradient id="by" cx="785.37" cy="776.04" r="35.06" gradientTransform="matrix(1.08 .01 .01 1 9.82 -15.98)" xlink:href="#l"/><radialGradient id="bz" cx="770.12" cy="271.87" r="59.71" gradientTransform="matrix(.42 1 -.91 .41 743.81 -77.87)" xlink:href="#l"/><radialGradient id="r" cx="646.27" cy="549.37" r="60.02" gradientTransform="scale(-1 1) rotate(45 -250.6 -1273.128)" gradientUnits="userSpaceOnUse"><stop offset=".02" stop-color="#775e98"/><stop offset="1" stop-color="#7f6aa9"/></radialGradient><radialGradient id="s" cx="1044.99" cy="1215.73" r="12.41" gradientTransform="rotate(.98 32680.362 -1537.723)" gradientUnits="userSpaceOnUse"><stop offset=".01" stop-color="#edb285"/><stop offset=".35" stop-color="#f6c29a"/><stop offset=".72" stop-color="#fdcfaa"/><stop offset="1" stop-color="#ffd3b0"/></radialGradient><radialGradient id="bA" cx="1429.67" cy="648.31" r="76.74" gradientTransform="matrix(-.97 -.23 -.23 .97 2410.15 352.88)" xlink:href="#r"/><radialGradient id="bB" cx="173.55" cy="671.68" r="60.78" gradientTransform="matrix(-.96 -.27 -.29 1.01 1224.86 178.79)" xlink:href="#r"/><radialGradient id="u" cx="761.52" cy="987.5" r="61.2" gradientTransform="translate(123.27)" gradientUnits="userSpaceOnUse"><stop offset=".01" stop-color="#595a94"/><stop offset="1" stop-color="#595a94"/></radialGradient><radialGradient id="bG" cx="1085.24" cy="1039.25" r="14.62" gradientTransform="rotate(-12.26 -1518.49 1416.68)" gradientUnits="userSpaceOnUse"><stop offset=".42" stop-color="#f7bc8f"/><stop offset="1" stop-color="#ffd6b0"/></radialGradient><radialGradient id="bH" cx="-451.35" cy="508.97" r="1.13" gradientTransform="matrix(-.53 -.35 -.55 .84 1010.04 -79.11)" xlink:href="#r"/><radialGradient id="bJ" cx="657.21" cy="775.44" r="57.27" gradientTransform="rotate(24.09 259.555 1155.212)" xlink:href="#u"/><radialGradient id="bL" cx="-2686.18" cy="-1284.98" r="10.56" gradientTransform="matrix(-.95 -.33 -.54 1.56 -2354.71 1863.49)" gradientUnits="userSpaceOnUse"><stop offset="0" stop-color="#25246d"/><stop offset="1" stop-color="#595a94"/></radialGradient><radialGradient id="bN" cx="297.66" cy="726.98" r="16.26" gradientTransform="matrix(-1 0 0 1 1172.6 0)" gradientUnits="userSpaceOnUse"><stop offset=".01" stop-color="#43428b"/><stop offset="1" stop-color="#7778b2"/></radialGradient><clipPath id="ar"><path fill="none" d="M1278.06,267.4l.27-.33c.79-.92,2.32.16,1.54,1.08l-.28.33Z"/></clipPath><clipPath id="as"><path fill="none" d="M924.69,370l-.18.37c-.52,1.07-2.29.35-1.77-.72l.18-.37Z"/></clipPath><clipPath id="aD"><path fill="azure" d="M661.49,421.16c-4,2.09-10.15,2.43-12.44.57-.3-.25-1.06-3.78,0-4.06C653.49,416.5,658.91,417.33,661.49,421.16Z"/></clipPath><clipPath id="aF"><path fill="azure" d="M686.59,420.71c-5,4.05-13.84,3.42-17.92.62C670.51,416.2,681,415.82,686.59,420.71Z"/></clipPath><clipPath id="be"><path fill="none" d="M1069.21,591.79l.09-.17c.27-.46,1,.16.75.62l-.09.17Z"/></clipPath><clipPath id="bf"><path fill="none" d="M924.9,640.63l0,.22c-.15.61-1,.17-.82-.45l.05-.21Z"/></clipPath></defs><g data-name="Layer 1"><rect width="746.03" height="568.8" x="586.59" y="174.04" fill="url(#x)"/><path fill="#fffcfa" d="M1312.1 199h-26.45a2.29 2.29 0 110-4.57h26.45a2.29 2.29 0 110 4.57zM1312.1 206.56h-26.45a2.29 2.29 0 110-4.57h26.45a2.29 2.29 0 110 4.57zM1312.1 214.17h-26.45a2.29 2.29 0 110-4.57h26.45a2.29 2.29 0 110 4.57zM1257 194.38h-24.37a2.18 2.18 0 00-2.18 2.17v22.1l5.62-4.48H1257a2.18 2.18 0 002.18-2.17V196.55A2.18 2.18 0 001257 194.38zM1199.78 209.15l-6.14-3.58a3.33 3.33 0 000-1.63l6.14-3.58a3.46 3.46 0 10-1-1.71l-6.15 3.58a3.46 3.46 0 100 5.05l6.15 3.58a3.45 3.45 0 101-1.71z"/><g style="mix-blend-mode:multiply"><rect width="700.32" height="227.55" x="616.38" y="491.17" fill="#fff" opacity="0"/><rect width="698.93" height="226.44" x="616.66" y="491.33" fill="#fbfbfb" opacity=".05"/><rect width="697.55" height="225.33" x="616.94" y="491.48" fill="#f6f6f6" opacity=".1"/><rect width="696.17" height="224.22" x="617.22" y="491.64" fill="#f2f2f2" opacity=".14"/><rect width="694.79" height="223.12" x="617.5" y="491.8" fill="#ededed" opacity=".19"/><rect width="693.4" height="222.01" x="617.78" y="491.95" fill="#e9e9e9" opacity=".24"/><rect width="692.02" height="220.9" x="618.06" y="492.11" fill="#e5e5e5" opacity=".29"/><rect width="690.64" height="219.79" x="618.35" y="492.27" fill="#e0e0e0" opacity=".33"/><rect width="689.25" height="218.68" x="618.63" y="492.42" fill="#dcdcdc" opacity=".38"/><rect width="687.87" height="217.57" x="618.91" y="492.58" fill="#d8d8d8" opacity=".43"/><rect width="686.49" height="216.47" x="619.19" y="492.74" fill="#d3d3d3" opacity=".48"/><rect width="685.1" height="215.36" x="619.47" y="492.89" fill="#cfcfcf" opacity=".52"/><rect width="683.72" height="214.25" x="619.75" y="493.05" fill="#cacaca" opacity=".57"/><rect width="682.34" height="213.14" x="620.03" y="493.21" fill="#c6c6c6" opacity=".62"/><rect width="680.96" height="212.03" x="620.31" y="493.36" fill="#c2c2c2" opacity=".67"/><rect width="679.57" height="210.92" x="620.6" y="493.52" fill="#bdbdbd" opacity=".71"/><rect width="678.19" height="209.82" x="620.88" y="493.68" fill="#b9b9b9" opacity=".76"/><rect width="676.81" height="208.71" x="621.16" y="493.83" fill="#b5b5b5" opacity=".81"/><rect width="675.42" height="207.6" x="621.44" y="493.99" fill="#b0b0b0" opacity=".86"/><rect width="674.04" height="206.49" x="621.72" y="494.15" fill="#acacac" opacity=".9"/><rect width="672.66" height="205.38" x="622" y="494.3" fill="#a7a7a7" opacity=".95"/><rect width="671.28" height="204.27" x="622.28" y="494.46" fill="#a3a3a3"/></g><rect width="688.85" height="215.63" x="614.38" y="490.15" fill="#fffcfa"/><rect width="166.67" height="19.57" x="866.8" y="509.6" fill="url(#b)"/><polygon fill="#fffcfa" points="991.8 516.74 995.38 520.49 991.8 524.24 991.8 516.74"/><polygon fill="#fffcfa" points="908 516.74 904.43 520.49 908 524.24 908 516.74"/><rect width="11.62" height="11.62" x="1019.36" y="540.13" fill="url(#a)"/><rect width="11.62" height="11.62" x="869.29" y="568.31" fill="#e6f1f5"/><rect width="11.62" height="11.62" x="894.31" y="568.31" fill="#e6f1f5"/><rect width="11.62" height="11.62" x="919.32" y="568.31" fill="#e6f1f5"/><rect width="11.62" height="11.62" x="944.33" y="568.31" fill="#e6f1f5"/><rect width="11.62" height="11.62" x="969.34" y="568.31" fill="#e6f1f5"/><rect width="11.62" height="11.62" x="994.35" y="568.31" fill="url(#y)"/><rect width="11.62" height="11.62" x="1019.36" y="568.31" fill="url(#z)"/><rect width="11.62" height="11.62" x="869.29" y="596.5" fill="#e6f1f5"/><rect width="11.62" height="11.62" x="894.31" y="596.5" fill="#e6f1f5"/><rect width="11.62" height="11.62" x="919.32" y="596.5" fill="#e6f1f5"/><rect width="11.62" height="11.62" x="944.33" y="596.5" fill="#e6f1f5"/><rect width="11.62" height="11.62" x="969.34" y="596.5" fill="#e6f1f5"/><rect width="11.62" height="11.62" x="994.35" y="596.5" fill="url(#A)"/><rect width="11.62" height="11.62" x="1019.36" y="596.5" fill="url(#B)"/><rect width="11.62" height="11.62" x="869.29" y="624.68" fill="#e6f1f5"/><rect width="11.62" height="11.62" x="894.31" y="624.68" fill="#e6f1f5"/><rect width="11.62" height="11.62" x="919.32" y="624.68" fill="#e6f1f5"/><rect width="11.62" height="11.62" x="944.33" y="624.68" fill="#827bc9"/><rect width="11.62" height="11.62" x="969.34" y="624.68" fill="#e6f1f5"/><rect width="11.62" height="11.62" x="994.35" y="624.68" fill="url(#C)"/><rect width="11.62" height="11.62" x="1019.36" y="624.68" fill="url(#D)"/><rect width="11.62" height="11.62" x="869.29" y="652.87" fill="#e6f1f5"/><rect width="11.62" height="11.62" x="894.31" y="652.87" fill="#827bc9"/><rect width="11.62" height="11.62" x="919.32" y="652.87" fill="#e6f1f5"/><rect width="11.62" height="11.62" x="944.33" y="652.87" fill="#e6f1f5"/><rect width="11.62" height="11.62" x="969.34" y="652.87" fill="#e6f1f5"/><rect width="11.62" height="11.62" x="994.35" y="652.87" fill="url(#E)"/><rect width="11.62" height="11.62" x="1019.36" y="652.87" fill="url(#F)"/><rect width="11.62" height="11.62" x="869.29" y="681.06" fill="#e6f1f5"/><rect width="53.82" height="9.64" x="925.13" y="514.6" fill="#fffcfa"/><path fill="#fcb3b3" d="M662.48 558.49l-10.14 11a1.37 1.37 0 01-1 .45H623.41a1.47 1.47 0 00-1.41 1.53V578a1.47 1.47 0 001.41 1.53h11.73a1.34 1.34 0 011 .45l8.65 9.4a1.63 1.63 0 01.41 1.08v10a1.6 1.6 0 00.42 1.09l22.79 24.76a1.37 1.37 0 001 .45h1.28a1.48 1.48 0 011.41 1.54v1.74a1.59 1.59 0 01-.41 1.09l-3.88 4.21a1.63 1.63 0 00-.41 1.08v4.51a1.61 1.61 0 00.41 1.08l9.12 9.91a1.59 1.59 0 01.41 1.08V666.5a1.63 1.63 0 01-.41 1.08l-1.9 2.07a1.55 1.55 0 00-.42 1.08v10.91a1.55 1.55 0 00.42 1.08l2.77 3a1.37 1.37 0 001 .45H680a1.48 1.48 0 001.41-1.53v-1.28a1.63 1.63 0 00-.41-1.08l-1-1.11a1.55 1.55 0 01-.41-1.08v-6a1.58 1.58 0 01.41-1.08l9.38-10.19a1.59 1.59 0 00.41-1.08v-3.89a1.64 1.64 0 01.41-1.09l2.91-3.16a1.6 1.6 0 00.42-1.09V646a1.63 1.63 0 01.41-1.08l3.36-3.65a1.61 1.61 0 000-2.17l-11.35-12.33a1.33 1.33 0 00-1-.45h-4.5a1.48 1.48 0 01-1.41-1.53v-2.5a1.47 1.47 0 00-1.41-1.53h-5.23a1.48 1.48 0 01-1.41-1.53v-.49a1.47 1.47 0 00-1.41-1.53 1.48 1.48 0 01-1.41-1.53v-.73a1.48 1.48 0 00-1.41-1.53h-2.42a1.47 1.47 0 01-1.41-1.53v-2.61a1.48 1.48 0 011.41-1.54h4.38a1.37 1.37 0 001-.45l8.83-9.59a1.34 1.34 0 011-.45h1.29a1.33 1.33 0 001-.45l4.37-4.74a1.63 1.63 0 000-2.17l-6.36-6.9a1.63 1.63 0 010-2.17l4-4.34a1.63 1.63 0 000-2.17l-8.09-8.79a1.62 1.62 0 010-2.16l2.69-2.92a1.33 1.33 0 012 0l7.3 7.93a1.55 1.55 0 01.41 1.08v5a1.6 1.6 0 00.42 1.09l1.82 2a1.4 1.4 0 002.41-1.08v-1.95a1.48 1.48 0 011.41-1.53h9.59a1.37 1.37 0 001-.45l5.77-6.27a1.63 1.63 0 000-2.17l-5.15-5.59a1.34 1.34 0 00-1-.45l-40.9 0A1.37 1.37 0 00662.48 558.49zM750 615.2l-10.44-11.35a1 1 0 00-1.41 0l-1.29 1.39a.92.92 0 01-.7.32H722.61a.94.94 0 01-.71-.32l-2-2.19a1 1 0 00-.7-.32H712v.11l-6.17 6.71a1.14 1.14 0 00-.29.76v8.88a1.18 1.18 0 00.29.77l6.24 6.77a.94.94 0 00.71.32h7.44a1 1 0 01.71.32l4.28 4.66a1.12 1.12 0 01.3.76v9.55a1.12 1.12 0 01-.3.76L722.61 646a1.12 1.12 0 00-.3.77v9.11a1.14 1.14 0 00.3.77l4.31 4.68a1.13 1.13 0 01.29.77v3.81a1 1 0 001 1.08h3.23a1 1 0 00.71-.32l4.33-4.7a1.16 1.16 0 00.29-.77v-8.95a1.18 1.18 0 01.29-.77l3.59-3.89a1.16 1.16 0 00.29-.77v-10a1.12 1.12 0 01.29-.77l5-5.43a1.13 1.13 0 00.29-.77V625.3a1.11 1.11 0 00-.29-.76l-.74-.81a1.15 1.15 0 010-1.53l4.52-4.92a1.12 1.12 0 00.29-.77V616A1.09 1.09 0 00750 615.2z"/><path fill="#fcb3b3" d="M820.47 571H805.72a1 1 0 01-.71-.32l-3.22-3.51a1 1 0 00-.71-.31H784.41a1 1 0 01-.71-.32l-2.61-2.84a1 1 0 00-.7-.31H765.9a1 1 0 00-.71.31l-8.28 9a1 1 0 01-.7.32h-15.1a1 1 0 01-.71-.32l-4.4-4.78a1 1 0 00-.7-.32h-6a1 1 0 00-.7.32l-8 8.71a1.14 1.14 0 00-.3.77l0 15.1a1 1 0 01-1 1.08H713a1 1 0 00-1 1.08V597a1 1 0 001 1.08h8.53a.94.94 0 00.71-.32l3.19-3.47a1 1 0 011.42 0l4.82 5.25a1 1 0 00.71.32h8a1 1 0 01.7.31l9.18 10v0h3.77a1 1 0 01.7.31l4 4.38a1.14 1.14 0 01.3.77v12.16a1 1 0 001.7.77l1.85-2a1.16 1.16 0 00.29-.76v-3.77a1.12 1.12 0 01.29-.77l3.34-3.62a1.18 1.18 0 00.29-.77V612.6a1 1 0 011-1.08h1.7a1 1 0 011 1.08v5.81a1.16 1.16 0 00.29.76l5.7 6.19a1 1 0 001.41 0l2.71-3a1.09 1.09 0 00.29-.76v-3.11a1.12 1.12 0 01.3-.77l5.67-6.17a1.12 1.12 0 00.3-.77v-8a1.12 1.12 0 01.29-.77l4.53-4.92a1.14 1.14 0 00.3-.77v-2.89a1.13 1.13 0 01.29-.77l4.88-5.3a1.15 1.15 0 000-1.53l-2.29-2.49a1.16 1.16 0 010-1.54l2.49-2.7a1 1 0 01.7-.32h6.64a1.05 1.05 0 011 1.09v5.75a1 1 0 001.7.77l9.13-9.91a1 1 0 01.7-.32h5.69a1.1 1.1 0 00.71-1.85l-2.82-3.06A1 1 0 00820.47 571zM781.53 654.74l7.8-8.48A1 1 0 01790 646h4.51a1 1 0 01.7.31l1.85 2a1 1 0 001.7-.77 1 1 0 011.7-.76l7.48 8.12a1.16 1.16 0 01.29.76v7.83a1.14 1.14 0 01-.29.76l-5.49 6a1 1 0 01-.71.32h-3.36a1 1 0 01-.7-.32l-6.42-7a1 1 0 00-1.41 0L783 670.66a1 1 0 01-1.7-.76l-.09-14.38A1.16 1.16 0 01781.53 654.74z"/><rect width="105.2" height="15.33" x="638" y="509.6" fill="url(#G)"/><rect width="86.65" height="4.52" x="638" y="532.17" fill="url(#H)"/><rect width="102.53" height="4.52" x="638" y="540.25" fill="url(#I)"/><rect width="53.15" height="11.62" x="1092.76" y="668.91" fill="url(#J)"/><rect width="98.08" height="3.49" x="1175.64" y="672.98" fill="url(#c)"/><path fill="url(#K)" d="M1222,678.21h-43.93a3.49,3.49,0,0,1,0-7H1222a3.49,3.49,0,0,1,0,7Z"/><rect width="63.57" height="11.62" x="1092.76" y="640.72" fill="url(#L)"/><rect width="98.08" height="3.49" x="1175.64" y="644.79" fill="url(#M)"/><path fill="url(#N)" d="M1197.37,650h-19.32a3.49,3.49,0,0,1,0-7h19.32a3.49,3.49,0,1,1,0,7Z"/><rect width="51.14" height="11.62" x="1092.76" y="612.54" fill="url(#O)"/><rect width="98.08" height="3.49" x="1175.64" y="616.61" fill="url(#P)"/><path fill="url(#Q)" d="M1253.76,621.84h-75.71a3.49,3.49,0,0,1,0-7h75.71a3.49,3.49,0,1,1,0,7Z"/><rect width="55.96" height="11.62" x="1092.76" y="584.35" fill="url(#R)"/><rect width="98.08" height="3.49" x="1175.64" y="588.42" fill="url(#S)"/><path fill="url(#T)" d="M1217.4,593.65h-39.35a3.49,3.49,0,0,1,0-7h39.35a3.49,3.49,0,1,1,0,7Z"/><rect width="63.57" height="11.62" x="1092.49" y="552.68" fill="url(#U)"/><rect width="98.08" height="3.49" x="1175.37" y="556.75" fill="url(#V)"/><path fill="url(#W)" d="M1239.59,562h-61.8a3.49,3.49,0,0,1,0-7h61.8a3.49,3.49,0,0,1,0,7Z"/><rect width="135.03" height="4.52" x="1140.67" y="532.17" fill="url(#X)"/><rect width="116.03" height="17.45" x="1159.67" y="507.47" fill="url(#Y)"/><g style="mix-blend-mode:multiply"><rect width="283.58" height="244.54" x="616.38" y="240.48" fill="#fff" opacity="0"/><rect width="281.72" height="243.26" x="616.66" y="240.63" fill="#fbfbfb" opacity=".05"/><rect width="279.86" height="241.99" x="616.94" y="240.79" fill="#f6f6f6" opacity=".1"/><rect width="278" height="240.71" x="617.22" y="240.95" fill="#f2f2f2" opacity=".14"/><rect width="276.14" height="239.43" x="617.5" y="241.1" fill="#ededed" opacity=".19"/><rect width="274.28" height="238.15" x="617.78" y="241.26" fill="#e9e9e9" opacity=".24"/><rect width="272.42" height="236.88" x="618.06" y="241.42" fill="#e5e5e5" opacity=".29"/><rect width="270.56" height="235.6" x="618.35" y="241.57" fill="#e0e0e0" opacity=".33"/><rect width="268.7" height="234.32" x="618.63" y="241.73" fill="#dcdcdc" opacity=".38"/><rect width="266.84" height="233.04" x="618.91" y="241.89" fill="#d8d8d8" opacity=".43"/><rect width="264.98" height="231.76" x="619.19" y="242.04" fill="#d3d3d3" opacity=".48"/><rect width="263.12" height="230.49" x="619.47" y="242.2" fill="#cfcfcf" opacity=".52"/><rect width="261.26" height="229.21" x="619.75" y="242.36" fill="#cacaca" opacity=".57"/><rect width="259.4" height="227.93" x="620.03" y="242.51" fill="#c6c6c6" opacity=".62"/><rect width="257.54" height="226.65" x="620.31" y="242.67" fill="#c2c2c2" opacity=".67"/><rect width="255.68" height="225.37" x="620.6" y="242.83" fill="#bdbdbd" opacity=".71"/><rect width="253.82" height="224.1" x="620.88" y="242.98" fill="#b9b9b9" opacity=".76"/><rect width="251.96" height="222.82" x="621.16" y="243.14" fill="#b5b5b5" opacity=".81"/><rect width="250.1" height="221.54" x="621.44" y="243.3" fill="#b0b0b0" opacity=".86"/><rect width="248.24" height="220.26" x="621.72" y="243.45" fill="#acacac" opacity=".9"/><rect width="246.38" height="218.98" x="622" y="243.61" fill="#a7a7a7" opacity=".95"/><rect width="244.52" height="217.71" x="622.28" y="243.77" fill="#a3a3a3"/></g><rect width="264.54" height="236.84" x="615.2" y="236.19" fill="#fffcfa"/><rect width="4.07" height="164.72" x="646.46" y="275.75" style="mix-blend-mode:multiply" fill="url(#d)"/><rect width="4.07" height="164.72" x="678.37" y="275.75" style="mix-blend-mode:multiply" fill="url(#Z)"/><rect width="4.07" height="164.72" x="710.29" y="275.75" style="mix-blend-mode:multiply" fill="url(#aa)"/><rect width="4.07" height="164.72" x="742.21" y="275.75" style="mix-blend-mode:multiply" fill="url(#ab)"/><rect width="4.07" height="164.72" x="774.13" y="275.75" style="mix-blend-mode:multiply" fill="url(#ac)"/><rect width="4.07" height="164.72" x="806.04" y="275.75" style="mix-blend-mode:multiply" fill="url(#ad)"/><rect width="4.07" height="164.72" x="837.96" y="275.75" style="mix-blend-mode:multiply" fill="url(#ae)"/><rect width="99.82" height="14.62" x="642.84" y="259.27" fill="url(#af)"/><rect width="148.42" height="4.9" x="642.84" y="282.06" fill="url(#ag)"/><rect width="109.68" height="4.9" x="642.84" y="290.76" fill="url(#ah)"/><g style="mix-blend-mode:multiply"><rect width="407.47" height="244.54" x="913.19" y="240.48" fill="#fff" opacity="0"/><rect width="405.61" height="243.26" x="913.47" y="240.63" fill="#fbfbfb" opacity=".05"/><rect width="403.75" height="241.99" x="913.75" y="240.79" fill="#f6f6f6" opacity=".1"/><rect width="401.89" height="240.71" x="914.03" y="240.95" fill="#f2f2f2" opacity=".14"/><rect width="400.03" height="239.43" x="914.31" y="241.1" fill="#ededed" opacity=".19"/><rect width="398.17" height="238.15" x="914.59" y="241.26" fill="#e9e9e9" opacity=".24"/><rect width="396.31" height="236.88" x="914.87" y="241.42" fill="#e5e5e5" opacity=".29"/><rect width="394.45" height="235.6" x="915.15" y="241.57" fill="#e0e0e0" opacity=".33"/><rect width="392.59" height="234.32" x="915.44" y="241.73" fill="#dcdcdc" opacity=".38"/><rect width="390.73" height="233.04" x="915.72" y="241.89" fill="#d8d8d8" opacity=".43"/><rect width="388.87" height="231.76" x="916" y="242.04" fill="#d3d3d3" opacity=".48"/><rect width="387.01" height="230.49" x="916.28" y="242.2" fill="#cfcfcf" opacity=".52"/><rect width="385.15" height="229.21" x="916.56" y="242.36" fill="#cacaca" opacity=".57"/><rect width="383.29" height="227.93" x="916.84" y="242.51" fill="#c6c6c6" opacity=".62"/><rect width="381.43" height="226.65" x="917.12" y="242.67" fill="#c2c2c2" opacity=".67"/><rect width="379.57" height="225.37" x="917.41" y="242.83" fill="#bdbdbd" opacity=".71"/><rect width="377.71" height="224.1" x="917.69" y="242.98" fill="#b9b9b9" opacity=".76"/><rect width="375.85" height="222.82" x="917.97" y="243.14" fill="#b5b5b5" opacity=".81"/><rect width="373.99" height="221.54" x="918.25" y="243.3" fill="#b0b0b0" opacity=".86"/><rect width="372.13" height="220.26" x="918.53" y="243.45" fill="#acacac" opacity=".9"/><rect width="370.27" height="218.98" x="918.81" y="243.61" fill="#a7a7a7" opacity=".95"/><rect width="368.41" height="217.71" x="919.09" y="243.77" fill="#a3a3a3"/></g><rect width="405.81" height="234.83" x="898.04" y="237.24" fill="#fffcfa"/><rect width="164.46" height="18.11" x="916.64" y="254.58" fill="url(#ai)"/><rect width="193.17" height="8.36" x="916.64" y="277.82" fill="url(#aj)"/><rect width="15.32" height="75.69" x="939.65" y="375.06" fill="url(#ak)"/><rect width="15.32" height="74.38" x="987.05" y="376.38" fill="url(#al)"/><rect width="15.32" height="65.67" x="1034.44" y="385.11" fill="url(#am)"/><rect width="15.32" height="88.99" x="1081.83" y="361.79" fill="url(#an)"/><rect width="15.32" height="74.38" x="1129.22" y="376.42" fill="url(#ao)"/><rect width="15.32" height="63.22" x="1176.61" y="387.59" fill="url(#n)"/><rect width="15.32" height="74.38" x="1224" y="376.44" fill="url(#ap)"/><rect width="15.32" height="141.94" x="1271.41" y="308.9" fill="url(#aq)"/><rect width="15.32" height="5.56" x="939.67" y="374.53" fill="#b4a2d7"/><rect width="15.32" height="5.56" x="987.06" y="376.38" fill="#b4a2d7"/><rect width="15.32" height="5.56" x="1034.45" y="384.81" fill="#b4a2d7"/><rect width="15.32" height="5.56" x="1081.84" y="361.72" fill="#b4a2d7"/><rect width="15.32" height="5.56" x="1129.23" y="376.4" fill="#b4a2d7"/><rect width="15.32" height="5.56" x="1176.62" y="387.23" fill="#b4a2d7"/><rect width="15.32" height="5.56" x="1224.01" y="376.12" fill="#b4a2d7"/><rect width="15.32" height="5.56" x="1271.43" y="308.7" fill="#b4a2d7"/><path fill="#b5a3d7" d="M1227.56 324.2a4.1 4.1 0 013.59-4.7 4.42 4.42 0 015.15 3.27 4.1 4.1 0 01-3.58 4.71A4.44 4.44 0 011227.56 324.2zm4.07-2.27a1.61 1.61 0 00-1.4 1.84 1.73 1.73 0 002 1.27 1.59 1.59 0 001.39-1.83A1.73 1.73 0 001231.63 321.93zM1181.75 383c-3.25-2.06-2.12-6.69 1.75-7.32s6.7 3.32 4.43 6.3A4.71 4.71 0 011181.75 383zm.83-3c.41 2 3.8 1.48 3.4-.56S1182.18 377.85 1182.58 379.91zM1133.2 349.23a4.72 4.72 0 016.18-1c3.26 2.08 2.1 6.69-1.75 7.32S1130.92 352.22 1133.2 349.23zm1.94 2.6c.41 2.05 3.81 1.5 3.4-.56S1134.74 349.78 1135.14 351.83zM1085.14 291.38a4.1 4.1 0 013.58-4.71 4.45 4.45 0 015.16 3.28 4.1 4.1 0 01-3.59 4.7A4.42 4.42 0 011085.14 291.38zm4.06-2.27a1.59 1.59 0 10.61 3.11 1.61 1.61 0 001.4-1.84A1.73 1.73 0 001089.2 289.11zM991 337.28a4.72 4.72 0 016.18-1c3.26 2.07 2.1 6.69-1.75 7.32S988.71 340.27 991 337.28zm1.94 2.6c.41 2.05 3.81 1.49 3.4-.56S992.53 337.82 992.93 339.88zM946.08 322c-3.22-2.05-2.13-6.68 1.76-7.32A4.41 4.41 0 01953 318C953.69 321.52 949.3 324 946.08 322zm2.23-4.88a1.54 1.54 0 00-.68 2.85 1.65 1.65 0 10.68-2.85zM1038 351.55a4.11 4.11 0 013.59-4.71 4.43 4.43 0 015.15 3.27 4.1 4.1 0 01-3.58 4.71A4.44 4.44 0 011038 351.55zm4.07-2.27a1.59 1.59 0 102 1.27A1.71 1.71 0 001042 349.28zM1274.73 268.25a3.74 3.74 0 01.73-3c2.27-3 7.32-1.92 8 1.6a3.78 3.78 0 01-.72 3C1280.49 272.81 1275.43 271.78 1274.73 268.25zm2.67-.44c.4 2.06 3.8 1.5 3.4-.56S1277 265.75 1277.4 267.81z"/><polygon fill="url(#e)" points="430.48 819.64 377.32 1002.36 379.89 1002.22 445.8 815.85 430.48 819.64"/><polygon fill="url(#at)" points="473.82 803.45 517.21 995.37 514.57 995.05 458.24 798.58 473.82 803.45"/><polygon fill="url(#au)" points="463.52 815.9 435.59 1004.13 438.11 1003.64 478.19 810.07 463.52 815.9"/><path fill="#9d94e6" d="M402.29,663.94c38-6.82,60.61,41.63,74.81,94.66,14,52.32,108.2,52.81,69.1,95.6-13.68,15-128.07,18.8-165.85-10.56C335.11,808.47,355.61,672.31,402.29,663.94Z"/><path fill="url(#f)" d="M385.43,736.79s-5.11,29.8-2.24,36.25c2.46,5.51,21.52-10.86,21.52-10.86l3.9-24.48Z"/><path fill="url(#av)" d="M406.29,514.18c-8.46-7.26-25.7,1.34-27.3,16.49-36.1,15.11-12,84.61,3.22,67.65-7.34,15.24,17.56,27.46,21.07,11.87,6.54,9.78,16.84,17.61,31.4-4.89,13.82-13,12.74-34.95,18.11-51.88,2.68-8.43,1.68-11.57,4-20.63,5.57-21.52-15.38-29.3-18.83-23.13C430.49,494,408.35,503,406.29,514.18Z"/><rect width="17.73" height="33.18" x="435.76" y="606.28" fill="url(#aw)"/><polygon fill="#d29560" points="436.63 759.81 411.06 647.94 445.86 622.76 467.07 637.2 457.97 754.63 436.63 759.81"/><path fill="#c95e49" d="M592 984.24c-3.87 2.61-7.87 5.41-4.36 7.88s1.7.06 6.92 3.27c3.28 2 8.73 14.13 16 12.53 1.53-.34-5.16-5.66-6.45-9.95-1.64-5.45-3.87-7.46-5.56-10C597.24 986.05 592 984.24 592 984.24zM533.89 982.82c-3.87 2.61-7.87 5.41-4.36 7.88s1.7 0 6.92 3.26c3.28 2 8.73 14.13 16 12.53 1.52-.33-5.16-5.65-6.45-10-1.64-5.45-3.87-7.45-5.56-10C539.12 984.63 533.89 982.82 533.89 982.82z"/><path fill="#333c56" d="M443.79,822.68c1.84,5.17,4.81,11.64,11.51,13.26,34.18,8.24,67.67,18.92,99.55,21.28-19.14,30.15,24.54,64.16,35.58,128.32.52,3,3,6.9,6.27,4.93-14.61-82.54-14.16-124.15-17-138.72-3.57-18.38-97.5-73.47-133.21-55.35C441.58,803.74,441.38,815.9,443.79,822.68Z"/><path fill="url(#ax)" d="M497.07,730.94s4.45,16,7.82,24,26.91-.47,31.18,8-10,18.45-10,18.45l-32.87-3.52-19.14-31.12Z"/><path fill="url(#ay)" d="M429.76,633.15s5.05,15.37,25.76,15.37c11.56,0,10.66-13.4,10.66-13.4s14.82,11.93,17.93,17.34c10.13,17.62,11.6,47.11,18.06,79.3-5.59,2.43-13.88,6.62-16.06,12.07-1.28,3.2-3.75,20.95,7.33,54-10.17-.67-16.85,1.9-27.2,4.32-24.84,5.82-59-.88-56.92-6,22.23-54.11,3.37-54.11-.71-44.8-7.12,2.11-26.21-8.85-26.21-8.85s5.14-70,17.59-88.88C405,646.07,429.76,633.15,429.76,633.15Z"/><path fill="#3e4766" d="M406.22,822.27c1.84,5.17,4.81,11.64,11.5,13.25,34.19,8.25,67.67,18.93,99.56,21.29-28.65,21,5.6,65.64,16.64,129.8.52,3,5.18,5.11,5.91,2.79-14.61-82.54,5.13-123.49,2.3-138.06C538.55,833,444.63,777.86,408.91,796,404,803.33,403.8,815.48,406.22,822.27Z"/><path fill="#d29560" d="M469.2,570.56c2.21,3.55,5.65,3.5,6.33,6.85,3.14,15.47-11.75,36.41-18.2,37.8-5.81,1.27-21.77-2.39-31.94-13.47-3.54-3.86-7.74-9-8.84-13.75-4.65-10-5.76-23.38-3.75-32.37,2.71-12.19,37.95-21.93,39.87-19.92,4.2,4.41,14.38,15.88,16.45,20.91C469.92,558.56,469.05,565.31,469.2,570.56Z"/><path fill="#ba7a4f" d="M451.73,567.94c4,21.72,18.59,12.64,11.39,19.75a9.24,9.24,0,0,1-5.29,2.3c3.88-1.68,5.68-5.41,5.72-4.69C464.36,585.7,452.2,584.31,451.73,567.94Z"/><path fill="#261425" d="M445.86,543.53c2.7-1.24,8.72-5.07,10-3.9a99.8,99.8,0,0,1,8.62,9.78c.93,1.24-.35-7.89-7.66-16.62-7.92-9.47-12.32-7.25-14.67-6.43S415,531,411.37,533s-13.88,21.46-12.89,26.05c.53,2.44,3.88,12.31,8.64,22,4.18,8.49,4.46-.37,6.32-2.07,2.73-2.51,8.37-21.54,10.37-31.53C424.85,542.25,443.86,544.45,445.86,543.53Z"/><path fill="#d29560" d="M411,576c-5.48-4.14-7.54.66-6.88,3s12,15.13,12.46,9S411,576,411,576Z"/><path fill="#261425" d="M352.58,560.16a3.4,3.4,0,0,1-2.41-2.51c-1.33-5.25,5.1-9.25,8.55-11.4,10-6.24,20.91-9.53,36.29-8,1.79.18,4.4.07,6.27,2,1.45,1.5,1.52,5.85-5.82,4.82-9.78-1.36-25.41,4.17-33.25,10.89C359.67,558.15,356.28,561.09,352.58,560.16Z"/><path fill="#261425" d="M363.13 593.4c-1.27-16.06 5-28.21 17.55-38.39 4.14-3.37 10.07-7.91 14.92-5.62a2.47 2.47 0 011.48 2.25c0 2.82-4.79 3.68-7.5 5.37-11.31 7-17.94 21.67-16.5 36.52.22 2.25.84 5.1-.06 7.71C371.69 605.09 364.18 606.58 363.13 593.4zM408 530.89a19 19 0 00-4.77-8.43c-1.48-1.57-3.18-2.2-6.07-2.25-8-.12-9.56 2.66-13.49 3.51-2.58.56-4.21-.74-4.51-2.67-1.41-9 11-11.63 19.82-10.48 9.9 1.31 15.33 11.33 14.68 19.88A2.87 2.87 0 01408 530.89zM428.49 525.63a3 3 0 01-.18-3.26c5.28-9.3-.25-17-6.72-16.12-2.83.38-5.23 2.83-7.29 3.28-3.7.8-6.53-3.29-4.82-6.72 4.07-8.16 20.07-9.89 26.36 1.31 3.39 6.06 2.51 13.86-2.44 21.4a2.94 2.94 0 01-1.84 1.29A3 3 0 01428.49 525.63z"/><path fill="#261425" d="M403.43,623c-11.5-8.94-17.29-32.49-13.46-54.78.57-3.33,5.69-2.7,5.2.72-2.72,19.16,5.34,39.23,12,45.78,4.66,4.61,8,3,11.88,3.92,3.63.88,4.18,6.86-2.49,8.3C412.24,627.86,406.89,625.68,403.43,623Z"/><path fill="#785a72" d="M432.8,532.57c-22.47.07-21.79,4.29-27.86,25.24C412.58,541.31,412.3,534.56,432.8,532.57Z"/><path fill="#785a72" d="M432.76 535.59c-16.33 1.9-16.4 3.74-23.09 18.89C416 543.52 417.1 538.65 432.76 535.59zM436.35 531.59c13.73-6.2 14.49-3.43 24 7.67C451.11 531.31 449.41 527.11 436.35 531.59z"/><path fill="#785a72" d="M437.36,534.09c9.62-3.34,11.58-3.68,19.19,4.44C449.65,533.6,447.77,531.61,437.36,534.09Z"/><path fill="#94728d" d="M433.65 522.87c4.38-19.93-10.3-29.87-21.26-21.19C423.19 489.85 441.18 504 433.65 522.87zM412.41 531c-.61-6.79-4.23-13.87-10.36-16.57-6.42-2.93-13.17-1.33-20.07.8C403.12 504.84 413.27 519.23 412.41 531zM400.2 541.59c-10-2.26-32 1.42-42.62 8.06a21.72 21.72 0 00-6.17 5.29C360 541.57 388.94 537.45 400.2 541.59zM393 549.9c-16.31 5.17-30.63 25.81-29.55 46.18C360.14 576.68 375 553.4 393 549.9zM390 568.21c-2 15.17-.28 31.85 5.74 45.15C388.58 602.93 385.58 582.2 390 568.21z"/><path fill="#fff" d="M456.48,575.44c7.14,3.73,11.25,1.94,13.42-1,1.55-2.08.83-8.63-2.07-9C462,564.74,458.8,569.93,456.48,575.44Z"/><path fill="url(#g)" d="M462.23,572.21c.82,3,3.42,4.94,5.83,4.29s3.69-3.61,2.88-6.63-3.42-4.94-5.82-4.29S461.42,569.19,462.23,572.21Z"/><path fill="#fff" d="M465.33 574.07a1.52 1.52 0 00-1.24-2.77C462.37 572.07 463.61 574.84 465.33 574.07zM465.85 570.52a1.15 1.15 0 00-.93-2.09A1.15 1.15 0 00465.85 570.52z"/><path fill="#071d49" d="M473.51,561.92c.51,3.12-2.43,5.54-3.78,5.26-5.74-1.17-9,.74-13.25,8.26-.08-6,6.21-12.08,12.81-10.25C470.32,564.92,472.73,563.73,473.51,561.92Z"/><path fill="#fff" d="M429,581.56c7.32,4.41,11.79,2.78,14.26-.16,1.78-2.11,1.44-9.09-1.61-9.66C435.53,570.59,431.82,575.88,429,581.56Z"/><path fill="url(#az)" d="M434.93,578.58c.66,3.25,3.39,5.44,6.08,4.89s4.34-3.64,3.67-6.89-3.39-5.44-6.09-4.88S434.26,575.33,434.93,578.58Z"/><path fill="#fff" d="M438.47 580.68c1.87-.7.74-3.71-1.13-3S436.6 581.38 438.47 580.68zM439.26 577a1.22 1.22 0 00-.86-2.27A1.22 1.22 0 00439.26 577z"/><path fill="#071d49" d="M447.91,568.34c.34,3.33-2.92,5.71-4.33,5.33-6-1.61-9.61.2-14.56,7.89.54-6.92,8.27-12.31,14.21-10C444.35,571.32,447,570.21,447.91,568.34Z"/><path fill="#fffef0" d="M442.11,596.93s13.77,3.63,21.61-1.84c.34,2.86-6.45,7.55-7.73,7.55C452.47,602.64,444.9,599.35,442.11,596.93Z"/><path fill="#071d49" d="M456.39 561.05c2.83-3.43 6.25-5.47 11-4.84l.27-1.28c-5.29-1.22-9.5.63-13.24 4.35zM443.35 560.89c-4.56-1.18-9.26-1.37-14.6 1.8a17 17 0 00-3.61 2.78l1 .88a15.34 15.34 0 012.22-1.6c5.14-2.9 9.14-3.07 14.27-1.35z"/><polygon fill="url(#h)" points="593.07 775.68 592.18 784.97 528.42 787.63 447.36 784.6 448.36 773.33 543.14 767.17 593.07 775.68"/><polygon fill="url(#aA)" points="521.88 777.65 533.22 688.79 616.49 678.93 618.55 681.77 592.91 777.36 528.03 780.08 521.88 777.65"/><polygon fill="url(#aB)" points="569.12 730.79 570.77 726.68 571.79 726.57 571.95 727.99 573.1 728.16 574.17 726.3 574.38 728.24 576.16 728.04 576.87 726.84 577.07 728.63 577.84 729.02 577.99 730.37 576.44 730.54 576.54 729.29 575.55 730.08 573.83 730.27 573.7 729.12 572.88 730.94 571.26 731.12 571.09 729.53 569.12 730.79"/><polygon fill="#a1aba9" points="521.81 778.42 448.32 773.72 448.4 772.95 521.88 777.65 521.81 778.42"/><path fill="#a1aba9" d="M527.9,779.8h-.1a.39.39,0,0,1-.33-.44l8.8-87.25L616.71,681a.4.4,0,0,1,.43.33.39.39,0,0,1-.33.44L537,692.8l-8.71,86.67A.39.39,0,0,1,527.9,779.8Z"/><path fill="#a1aba9" d="M528.23,780.12a.4.4,0,0,1-.43-.32.4.4,0,0,1,.32-.45L592.19,777a.37.37,0,0,1,.44.32.39.39,0,0,1-.31.45l-64.07,2.33Z"/><path fill="#d29560" d="M412.21,755c18.21,0,28.13,9.79,61,18.37-38.88.86-63.3,4.55-68.46,4.87-6.92.43-20.6-2.11-21.52-5.17C380.74,764.82,401,755,412.21,755Z"/><path fill="#d29560" d="M455.71,768.05c12.32-1.23,22.86-14,28.8-5.36,2.63,3.85,3.64,6,3.62,7.22,0,1.05-1.93,1.65-3.78,1-.81-.3-2.77-2.79-3.41-2.8-1,0,.45,2.09-.91,2.36s-2.71-6.18-5.35-4c-4.54,3.7-10.63,10.31-14.27,6.66A64.59,64.59,0,0,1,455.71,768.05Z"/><polygon fill="url(#w)" points="697.73 494.14 666.78 494.14 669.84 436.4 694.78 437.78 697.73 494.14"/><path fill="url(#i)" d="M670,496.43c-8.58-2.38-36.87,10.33-43.21,16.58-11.18,11-41.31,75-35.67,102.66,1,5.14,10.83,16.29,15.6,14.08C648.49,610.4,676.41,539.21,681,515,682,509.67,675.19,497.88,670,496.43Z"/><path fill="url(#aC)" d="M678.19,494.14c-3.2-.34-8.68-7.65-11.41-5.95-9.58,5.95-28.38,18.81-30.91,28.1-10,36.63,12.62,101.82,26.74,178.55.61,3.31,10-1.07,13.4-1.07s17.44,5.43,18.68,2.31c24.41-61.79,58.28-159.5,38.76-184.79-4.16-5.38-23.33-17.15-36.83-22.2C692.14,487.42,682.94,494.65,678.19,494.14Z"/><path fill="#d34259" d="M717.22,500.89s21.34,8,28.3,15.38c19.38,20.42,33,87,32.64,116.3,0,4.74-21.18,8.52-24.66,5.31-26.86-24.76-36-69.52-40.43-95.38C711.78,534.94,717.22,500.89,717.22,500.89Z"/><path fill="url(#j)" d="M700.54,447.21c-4.2,7.78-25.23,24.14-25.23,24.14l-19.19-2.26S646,442.26,645.83,432.63c-.07-4,3.72-15.6,3.72-15.6l-5.36-6.68V392.23l19.21-19.74L700.22,376l13.61,22.53-3.94,22.7-4.62,2.1S703.43,441.86,700.54,447.21Z"/><polygon fill="#3b1e17" points="688.46 407.76 676.91 406.48 677.68 406.49 665.3 411.2 663.72 403.56 676.96 402.98 677.62 402.95 677.73 402.99 688.64 407 688.46 407.76"/><polygon fill="#3b1e17" points="642.65 410.23 645.4 405.02 646.04 403.81 648.28 404.1 658.15 405.34 656.48 412.96 646.99 409.97 649.87 409.04 644.97 412.32 642.65 410.23"/><path fill="azure" d="M661.49,421.16c-4,2.09-10.15,2.43-12.44.57-.3-.25-1.06-3.78,0-4.06C653.49,416.5,658.91,417.33,661.49,421.16Z"/><g clip-path="url(#aD)"><path fill="url(#k)" d="M657.73,418.26c0,3.24-1.78,5.87-4,5.87s-4-2.63-4-5.87C651.37,417.26,655.75,416.58,657.73,418.26Z"/></g><path fill="#38220f" d="M655.35 416.19c-2.57-.22-9.29 1-10.53 2 1.12-.1 14.13.3 15.9.59C659.69 417.56 658.15 416.85 655.35 416.19zM687 428.51l-3.32-.06c-2.11 0-5.12 0-8.74 0l-5.85 0a3 3 0 01-2.64-2.07 3.85 3.85 0 01-.15-.89c0-.28 0-.55 0-.83L666.2 423c-.15-2.26-.31-4.6-.47-7l-.12-1.79-.06-.89v-.73c0-.1 0-.25 0-.37A3.76 3.76 0 01666.8 410a3.94 3.94 0 012.46-.95c2.41-.06 4.82-.1 7.19-.09s4.71 0 7 .05l3.33 0h.47a5 5 0 01.6.08 3.84 3.84 0 011.11.44 3.65 3.65 0 011.52 1.71 3.56 3.56 0 01.3 1.08 3.51 3.51 0 010 .56l0 .38c0 .5 0 1-.08 1.49q-.07 1.45-.15 2.82c-.1 1.81-.2 3.46-.29 4.93 0 .74-.07 1.42-.11 2.06 0 .32 0 .62 0 .91a2.52 2.52 0 01-.05.48 3.23 3.23 0 01-.11.47 3.06 3.06 0 01-1.94 1.9 2.85 2.85 0 01-.72.14zm0-.65h.19a2.52 2.52 0 00.54-.14 2.18 2.18 0 001.34-1.49 1.92 1.92 0 000-.32 2.38 2.38 0 000-.38l0-.91c0-.64-.07-1.32-.11-2.06-.09-1.47-.18-3.12-.29-4.93q-.08-1.37-.15-2.82c0-.49-.05-1-.08-1.49l0-.37a1.55 1.55 0 000-.21 1 1 0 00-.16-.38 1.36 1.36 0 00-.59-.55 1.38 1.38 0 00-.39-.13.8.8 0 00-.2 0h-.34l-3.33 0c-2.26 0-4.59.06-7 .05s-4.78 0-7.19-.09a1.38 1.38 0 00-.87.25 1.54 1.54 0 00-.55.78s0 0 0 .08l0 .22v.4l-.06.89c0 .6-.07 1.2-.11 1.79-.17 2.37-.32 4.71-.48 7l-.09 1.68c0 .28 0 .55 0 .83a2.48 2.48 0 00.07.72 2.26 2.26 0 002.09 1.6l5.82 0c3.62 0 6.63.06 8.74 0z"/><path fill="#38220f" d="M657.18,428.51l-2.87-.06c-1.83,0-4.44,0-7.58,0-.79,0-1.58,0-2.46,0a2.88,2.88,0,0,1-2.33-1.58,2.93,2.93,0,0,1-.3-1.47c0-.46,0-.93,0-1.4,0-.94-.1-1.9-.15-2.88-.13-2-.33-4-.48-6l-.12-1.54,0-.39,0-.2v-.51a2.91,2.91,0,0,1,0-.31,4.75,4.75,0,0,1,.14-.54,3.8,3.8,0,0,1,3.51-2.56c2.09-.06,4.18-.1,6.23-.09s4.09,0,6.05.05h.43a3.39,3.39,0,0,1,.45,0,3.8,3.8,0,0,1,1.08.32,4,4,0,0,1,1.62,1.37,3.81,3.81,0,0,1,.64,2v.42l0,.34,0,.68c-.11,1.79-.22,3.49-.31,5.06s-.2,3-.29,4.28c0,.63-.07,1.23-.11,1.78v.43a3.24,3.24,0,0,1-.37,1.24,3,3,0,0,1-1.87,1.46,3.33,3.33,0,0,1-.62.1Zm0-.65h.17a2,2,0,0,0,.47-.11,2.18,2.18,0,0,0,1.3-1.18,2.43,2.43,0,0,0,.16-1.28c0-.55-.07-1.15-.11-1.78-.09-1.28-.19-2.71-.29-4.28s-.2-3.27-.31-5.06l0-.68,0-.34v-.27a1.35,1.35,0,0,0-.24-.65,1.32,1.32,0,0,0-.55-.44l-.17,0-.13,0s-.18,0-.29,0h-.29c-2,0-4,.06-6.05.05s-4.14,0-6.23-.09a1.42,1.42,0,0,0-1.35.78,1,1,0,0,0-.08.2l0,.08v0l0,.09V413c0-.08,0,0,0,0v.2l0,.39-.12,1.54c-.15,2.06-.34,4.09-.47,6-.06,1-.14,1.94-.16,2.88,0,.47,0,.94,0,1.4a2.56,2.56,0,0,0,.26,1.18,2.29,2.29,0,0,0,1.79,1.25c.82,0,1.66,0,2.43,0,3.14,0,5.75.06,7.58,0Z"/><path fill="#442d26" d="M689.63,366l-9.58-5.52s5-8.88,8-10.1c5.75-2.35,19.91-.92,24.66,3.09,4.31,3.63,6.51,21.59,6.51,21.59l-9.1-2.53Z"/><path fill="#351f1a" d="M689.63,366l-9.58-5.52s5.86-6.43,8.12-5.48c1.81.75,1.46,7.72,1.46,7.72l6,3.28s10.8-6.76,14.47-5.52c4.07,1.37,9.1,14.58,9.1,14.58l-9.1-2.53Z"/><path fill="#69443b" d="M685.12,369.64s1.17-8.25,3.43-9.2c2.1-.89,7.69,1.49,8.32,3.67.92,3.14-7.24,10.91-7.24,10.91Z"/><path fill="#442d26" d="M673.09,386.11c2.51.44,26.41,14,30.56,32.41s20.35-10.16,14.18-24.64S711.1,370.74,682.26,366c-7.1-1.16-48.87,17-38.07,38.6,2.64-4.79,4.87-13.49,5.82-14.5C650.74,389.33,670.73,385.69,673.09,386.11Z"/><path fill="#735a53" d="M704.12,414.32l-.8-1a26.17,26.17,0,0,0,9.86-20.07h1.3A27,27,0,0,1,704.12,414.32Z"/><polygon fill="#38220f" points="689.72 410.76 708.81 413.52 708.73 416.77 689.53 418.56 689.72 410.76"/><path fill="url(#aE)" d="M703.65,418.52s6.69-3.63,8.76-3.11c1.88.47,6.31,3.8,5.42,5.52-2.78,5.41-5.38,7.26-9.11,12.67-.6.87-3.32,0-4.2-.6s-2.12-3.63-2.12-3.63Z"/><path fill="#ffd5b8" d="M656.12,451.25l.74.22.79.1c.33,0,.67.06,1.06.07.77,0,1.66.06,2.63.08l3,.07c2.06.06,4.13.17,5.7.29l1.09.08c.31,0,.6,0,.84,0,.47,0,.77,0,.77,0a6.73,6.73,0,0,1-.63.48,7.65,7.65,0,0,1-.79.43c-.31.14-.67.3-1.07.44a14.9,14.9,0,0,1-2.77.64,13.41,13.41,0,0,1-1.58.16c-.54,0-1.09,0-1.64,0s-1.1-.06-1.64-.12a15.77,15.77,0,0,1-1.58-.27,12.06,12.06,0,0,1-2.74-.91,8.77,8.77,0,0,1-1-.6,6.52,6.52,0,0,1-.73-.6c-.16-.18-.25-.36-.33-.46Z"/><path fill="azure" d="M686.59,420.71c-5,4.05-13.84,3.42-17.92.62C670.51,416.2,681,415.82,686.59,420.71Z"/><g clip-path="url(#aF)"><path fill="url(#aG)" d="M681.91,420c-.34,3.56-2.66,6.06-5.17,5.59s-4.28-3.74-3.94-7.29C675.18,417.91,682.25,416.48,681.91,420Z"/></g><path fill="#38220f" d="M681.45,415.9c-3.47.18-6,.44-9.85.9a34.93,34.93,0,0,0-3.5,5,32.84,32.84,0,0,0,3.88-2.91c2.67,0,5.33-.18,8-.38a53.18,53.18,0,0,0,8.56,3.09C686.54,419.94,684,417.2,681.45,415.9Z"/><polygon fill="#ffd5b8" points="661.03 414.9 655.35 437.78 660.69 438.22 662.56 414.46 661.03 414.9"/><rect width="10.48" height="1.3" x="686.84" y="354.92" fill="#735a53" transform="rotate(-86 691.426 354.306)"/><rect width="10.96" height="1.3" x="690.6" y="355.99" fill="#735a53" transform="rotate(-66.11 696.115 356.636)"/><rect width="11.85" height="1.3" x="693.91" y="356.29" fill="#735a53" transform="rotate(-50.65 699.767 356.938)"/><rect width="14.78" height="1.3" x="696.37" y="357.77" fill="#735a53" transform="rotate(-30.57 703.774 358.42)"/><path fill="#735a53" d="M657.87 385.65c-1.28-7.92 15-16.36 22-18.54l.39 1.24c-6.25 1.95-22.21 10.17-21.09 17.1zM671.29 385.28l-1.14-.62c1.89-3.45 5.64-6.86 9-9.88 3-2.72 6.08-5.53 6.08-7h1.3c0 2.1-2.87 4.71-6.51 8C676.75 378.69 673.08 382 671.29 385.28z"/><path fill="#735a53" d="M668.27 385l-1.14-.62c2-3.59 6.51-7.12 10.53-10.22 3.35-2.6 6.81-5.28 6.81-6.72h1.3c0 2.07-3.23 4.58-7.32 7.74C674.54 378.21 670.11 381.65 668.27 385zM685 389.44l-.85-1c6.2-5.31 8.58-13.19 7.3-17.74l1.25-.35C694 375.24 691.79 383.58 685 389.44zM697.65 403.58l-.51-1.2c4-1.69 12.81-7.37 9.72-23.5l1.28-.24C710.41 390.47 706.49 399.79 697.65 403.58z"/><path fill="#735a53" d="M696.68 400.88l-.51-1.19c4-1.69 12.82-7.37 9.72-23.5l1.28-.25C709.44 387.78 705.52 397.1 696.68 400.88zM694.22 395.54l-1.14-.62.17-.31c3.65-6.65 7.42-13.52 3.89-21.87l1.19-.5c3.79 8.92-.32 16.4-3.94 23z"/><path fill="#735a53" d="M692.57 394.64l-1.14-.62.17-.31c3.65-6.65 7.42-13.52 3.89-21.87l1.19-.5c3.79 8.92-.32 16.4-3.94 23zM643.47 399.33c-2.21-6.8 8.22-18.18 14.67-22.64l.74 1.07c-6 4.14-16.16 15.06-14.18 21.17z"/><path fill="#4f332b" d="M636.86 989.06c.74 5.24 5.78 9.76.54 9-9.45-1.29-29.46 1.17-29.46-.56s22.67-1.17 24.62-6.13c1.46-3.73 7.63-18.75 6.24-10.83S636.86 989.06 636.86 989.06zM747.93 986.19c2 4.93 4.44 6.45-1.16 9.83-10.81 6.53-17.71 7-17.71 5.26s13.16-4.25 15.1-12.81c.89-3.9.16-20.46 1.88-11.49C747.5 984.58 747.49 985.07 747.93 986.19z"/><polygon fill="#e9586f" points="697.05 481.12 704.72 492.57 681.95 503.6 678.19 494.14 697.05 481.12"/><polygon fill="#e9586f" points="667.32 483.87 678.19 494.14 673.14 503.6 661.49 491.59 667.32 483.87"/><polygon fill="#912334" points="674.8 500.48 675.56 505.79 679.23 505.79 680.71 500.48 678.19 494.14 674.8 500.48"/><path fill="#912334" d="M676.16,505.79s-13.6,59.3-5.78,121.2c.3,2.41,8.92-2,8.63-4.45-4.21-34.46-.82-116.75-.82-116.75Z"/><path fill="url(#l)" d="M711.65,496.11c-16.53,31.91-29.39,72.75-27.13,167.62,0,.52,2.06.52,2.07,0,.81-56,8.9-120.19,28.43-165.73C715.37,497.19,711.65,496.11,711.65,496.11Z"/><path fill="url(#aH)" d="M653.73,495.91c-9.54,35.26-17.48,72.95,8.23,167.28.13.5,2.12.08,2-.43-10.72-55-16-120-6.23-168.62C657.93,493.28,653.73,495.91,653.73,495.91Z"/><path fill="#e9586f" d="M736.45 634.84s19.23-22.09 42.88-7.15c14.34 9 1.79 24.89-12.34 28.48-19.11 4.84-30.54-9.84-30.54-9.84zM625.49 605.65s-29.83-12.34-41.09 14.86c-6.82 16.5 13.5 26 27.78 22.31 19.31-5 20.25-25.61 20.25-25.61z"/><path fill="#38220f" d="M666.36,414.46c-1.72-3.18-6.18-3.18-6.58.2l-2.47-5.51h11.36Z"/><path fill="#68463e" d="M649.75,449c-1.07-3.39-2.8-11.07,8.76-9.25,8.89,1.41,12.15-4.43,26.61,2.18,8.53,3.9,3.54,18.55,1.21,22.37-7.37,12.08-26.87,9.31-30.21,5.41S651.16,453.49,649.75,449Z"/><path fill="url(#o)" d="M704.44,425.81c2.59.25,1.84,1.39,1.62,2.38s1.85,1.63,2.71,1.09,4.72-5.23,4.28-8.35C712.06,414,703.44,425.71,704.44,425.81Z"/><path fill="url(#m)" d="M716.32,696.43s-22.42,79.91-28.92,57.5c-6.24,42.59-10.85,60.68-18,79.42,16.73,70.68-23.67,85.42-30,162.61-6.06,1.82-9.13,0-12.64-2.26,2.81-9.71,9.54-54.6,11.49-69.34,9.06-68.29,7.8-82.85,4.62-89.77s2.89-129.19,10-167.58C671.55,650.78,716.32,696.43,716.32,696.43Z"/><path fill="url(#m)" d="M716.32,696.43s-22.42,79.91-28.92,57.5c-6.24,42.59-10.85,60.68-18,79.42,16.73,70.68-23.67,85.42-30,162.61-6.06,1.82-9.13,0-12.64-2.26,2.81-9.71,9.54-54.6,11.49-69.34,9.06-68.29,7.8-82.85,4.62-89.77s2.89-129.19,10-167.58C671.55,650.78,716.32,696.43,716.32,696.43Z"/><path fill="url(#aI)" d="M680.86,792.77c-1.5-1.69-3-3.38-4.46-5.1-1.23-1.46-2.41-2.91-3.51-4.36-5.89,25.87-9.29,46.08-9.15,48.55.22,3.82,7.35,52.65-4.74,91.28,10.67-26.68,20.72-46.15,10.39-89.79A238.41,238.41,0,0,0,680.86,792.77Z"/><path fill="#3c3151" d="M704.22,665.66s25.66,20.91,18.54,52.38c-2,9,8.11,91.39,7,111.22,36.69,44.18,10.94,86.51,20.46,161.94-4.17,4.75-8.07,3.69-11.54,3.69-.28-10-8.2-55.62-10.86-70.27-14.74-81.1-15.89-82.22-21.06-88s-36.93-113.09-42.42-151.7C659,647.42,704.22,665.66,704.22,665.66Z"/><path fill="url(#aJ)" d="M661.56,666.25c-.77,4.48.69,25.57,3,37.41.27,1.44,3.43-4.81,3.43-4.81L667.85,668S661.83,664.69,661.56,666.25Z"/><polygon fill="url(#aK)" points="653.2 655.81 652.92 667.01 708.43 670.23 710.45 657.56 653.2 655.81"/><path fill="url(#aL)" d="M747.77,989.25c-2.6-28.92-.4-133.49-26.65-155.5-2-10.69-14.53-78.6-14.53-98.69l16.21-4.21,7,98.41s15.6,17.38,20.45,45c3.91,22.32-4.14,71.18,0,116.89C747.81,993.53,747.77,991.14,747.77,989.25Z"/><path fill="url(#aL)" d="M747.77,989.25c-2.6-28.92-.4-133.49-26.65-155.5-2-10.69-14.53-78.6-14.53-98.69l16.21-4.21,7,98.41s15.6,17.38,20.45,45c3.91,22.32-4.14,71.18,0,116.89C747.81,993.53,747.77,991.14,747.77,989.25Z"/><path d="M747.77,989.25c-2.6-28.92-.4-133.49-26.65-155.5-2-10.69-14.53-78.6-14.53-98.69l16.21-4.21,7,98.41s15.6,17.38,20.45,45c3.91,22.32-4.14,71.18,0,116.89C747.81,993.53,747.77,991.14,747.77,989.25Z" style="mix-blend-mode:multiply" fill="url(#aM)" opacity=".7"/><path fill="url(#aM)" d="M747.77,989.25c-2.6-28.92-.4-133.49-26.65-155.5-2-10.69-14.53-78.6-14.53-98.69l16.21-4.21,7,98.41s15.6,17.38,20.45,45c3.91,22.32-4.14,71.18,0,116.89C747.81,993.53,747.77,991.14,747.77,989.25Z" opacity=".7"/><path fill="url(#aN)" d="M700,692.88c-.26,10.71.77,32.09,8.39,36.81,6.38-1.13,11.22-8.79,11.86-17.53C721,702.74,715.05,688,700,692.88Z"/><path fill="url(#aN)" d="M700,692.88c-.26,10.71.77,32.09,8.39,36.81,6.38-1.13,11.22-8.79,11.86-17.53C721,702.74,715.05,688,700,692.88Z"/><path fill="#fffef0" d="M679.88,444.34s-11.37,7.39-20.09,4.79c.54,2.69,8.08,4.9,9.24,4.52C672.22,452.6,678.08,447.36,679.88,444.34Z"/><path fill="url(#aO)" d="M593.48,628.1c3.82-5.62-.58-18.27,15.59-33.19,15.86-14.63,29.36,9.34,38.06,1.24,11.14-10.36,15.82,1.62,6.91,9.66-14.67,13.24-24.4,24.23-52.57,33.32C598.52,640.08,587.35,637.11,593.48,628.1Z"/><path fill="url(#aP)" d="M650.71,585.93c5.27-6.83,4.79-8.73,7.49-6.11s2.82,2.91,3.48,5.14-2.81-1.82-4.26-2.65-3,1.24-3.19,2c1.27.8,5.88,3.66,4.77,5.41s-1.59,7.63-4.13,6.67a16.53,16.53,0,0,1-6.17-4.65C648.19,590.86,650.71,585.93,650.71,585.93Z"/><polygon fill="#051523" points="641.06 590.66 660.11 621.01 673.49 620.77 671.7 615.54 661.11 590.07 642.84 588.65 641.06 590.66"/><path fill="url(#aQ)" d="M764.66,637.09c-6.14-4.66-23-16.76-32.16-21.08-22.63-10.61-55.71-7.63-68.28-13.3-16.1-7.26-7.2,2.59,4.7,9.54s31.65,26.46,51.2,34.12,44,1.83,47.07-.21S774.52,644.56,764.66,637.09Z"/><path fill="url(#aR)" d="M645.27,602.51c0,4.14,3,7.85,3,7.85-.44,1.22,2.08,4.3,3.15,3.56,0,0,10.64,2.67,15,1.32,5.45-1.69,9.52-7,8.43-10.08-1.16-3.33-10-11.49-12.22-11.61.78,1.71,2.12,5.11,2.12,5.11S645.27,600.08,645.27,602.51Z"/><polygon fill="url(#aS)" points="1022.97 673.35 1023.76 766.86 1035.05 767.08 1039.06 772.73 1042.75 767.23 1146.81 771.36 1152.21 778.19 942.24 776.37 949.21 769.57 985.44 767.47 1003.88 671.69 1022.97 673.35"/><polygon fill="url(#aT)" points="1083.01 572.13 1101.03 702.93 918.83 708.39 910.28 707.55 896.96 557.07 1083.01 572.13"/><polygon fill="#fffcfa" points="1096.86 700.12 921.11 700.06 903.34 562.36 1077.9 576.77 1096.86 700.12"/><polygon fill="url(#aU)" points="984.84 588.68 914.02 583.72 912.64 573.16 983.42 578.57 984.84 588.68"/><polygon fill="url(#aV)" points="998.25 597.03 915.04 591.59 914.41 586.71 997.6 592.39 998.25 597.03"/><polygon fill="url(#aW)" points="944.15 687.77 937.52 687.72 931.75 643.81 938.37 644.04 944.15 687.77"/><polygon fill="url(#aX)" points="964.66 687.93 958.03 687.88 952.32 645.26 958.94 645.49 964.66 687.93"/><polygon fill="url(#aY)" points="985.17 688.09 978.54 688.04 973.46 650.88 980.08 651.09 985.17 688.09"/><polygon fill="url(#aZ)" points="1005.69 688.25 999.05 688.2 992.12 638.48 998.73 638.74 1005.69 688.25"/><polygon fill="url(#ba)" points="1026.2 688.41 1019.57 688.36 1013.72 647.33 1020.34 647.56 1026.2 688.41"/><polygon fill="url(#bb)" points="1046.71 688.57 1040.08 688.52 1035.07 654.1 1041.69 654.3 1046.71 688.57"/><polygon fill="url(#bc)" points="1067.22 688.73 1060.59 688.68 1054.66 648.71 1061.27 648.94 1067.22 688.73"/><polygon fill="url(#bd)" points="1087.73 688.89 1081.1 688.84 1069.7 613.58 1076.3 613.96 1087.73 688.89"/><polygon fill="#b4a2d7" points="938.75 646.95 932.13 646.73 931.71 643.51 938.33 643.74 938.75 646.95"/><polygon fill="#b4a2d7" points="959.36 648.66 952.75 648.45 952.32 645.26 958.94 645.49 959.36 648.66"/><polygon fill="#b4a2d7" points="980.49 654.05 973.87 653.86 973.44 650.72 980.06 650.92 980.49 654.05"/><polygon fill="#b4a2d7" points="999.16 641.79 992.54 641.54 992.11 638.44 998.72 638.69 999.16 641.79"/><polygon fill="#b4a2d7" points="1020.78 650.6 1014.16 650.39 1013.72 647.33 1020.34 647.55 1020.78 650.6"/><polygon fill="#b4a2d7" points="1042.11 657.12 1035.48 656.93 1035.05 653.91 1041.66 654.1 1042.11 657.12"/><polygon fill="#b4a2d7" points="1061.69 651.74 1055.08 651.53 1054.63 648.54 1061.25 648.76 1061.69 651.74"/><polygon fill="#b4a2d7" points="1076.73 616.79 1070.13 616.43 1069.68 613.48 1076.29 613.86 1076.73 616.79"/><path fill="#b5a3d7" d="M1052 620.72a1.77 1.77 0 011.17-2.44 2.47 2.47 0 012.49 1.87 1.76 1.76 0 01-1.17 2.44A2.47 2.47 0 011052 620.72zm1.58-1.12c-.4.06-.6.48-.46.95a1 1 0 001 .73.7.7 0 00.45-1A1 1 0 001053.59 619.6zM1036.92 651.65c-1.56-1.17-1.44-3.67.18-4s3.15 1.9 2.41 3.49A1.64 1.64 0 011036.92 651.65zM1037 650c.34 1.12 1.76.86 1.42-.25S1036.7 648.88 1037 650zM1013.29 632.41a1.62 1.62 0 012.59-.44c1.57 1.2 1.43 3.72-.18 4S1012.55 634 1013.29 632.41zm1.05 1.47c.33 1.14 1.76.89 1.42-.25S1014 632.74 1014.34 633.88zM988 599.23c-.36-1.24.17-2.38 1.18-2.53a2.52 2.52 0 012.48 2c.35 1.24-.17 2.37-1.18 2.52A2.5 2.5 0 01988 599.23zm1.58-1.16c-.94.15-.44 1.89.5 1.75.39-.06.6-.5.46-1A1 1 0 00989.61 598.07zM951 622.94a1.58 1.58 0 012.58-.45c1.57 1.25 1.43 3.86-.19 4.15S950.25 624.61 951 622.94zm1 1.53c.34 1.18 1.76.93 1.43-.26S951.71 623.28 952 624.47zM930.47 613.18c-1.55-1.26-1.43-3.92.19-4.2a2.48 2.48 0 012.48 2C933.71 613.08 932 614.43 930.47 613.18zm.59-2.78c-.64.11-.68 1.15-.08 1.64s1.26 0 1-.85A1 1 0 00931.06 610.4zM972.38 632c-.36-1.25.17-2.42 1.18-2.59a2.44 2.44 0 012.48 1.94c.36 1.25-.17 2.41-1.18 2.59A2.44 2.44 0 01972.38 632zm1.58-1.21c-.94.17-.44 1.94.5 1.77a.74.74 0 00.46-1A1 1 0 00974 630.75zM1067.85 592.14a2.15 2.15 0 01.07-1.59c.73-1.5 3-.78 3.58 1.1a2.18 2.18 0 01-.07 1.58C1070.69 594.73 1068.43 594 1067.85 592.14zM1069 592c.34 1.09 1.76.91 1.42-.19S1068.62 590.88 1069 592z"/><path fill="url(#q)" d="M1135.45,825.82c3.54-15.67,74.21-46.4,88.36-38.91s-30.87,48.36-55.29,52.3S1135.45,825.82,1135.45,825.82Z"/><path fill="url(#bg)" d="M1089.57,690.28c3.21,3.5,5.15,44,21.86,67.36,13.91,19.46,31.89,25.72,46.06,22.19,2.6-.65,10.84-19,.55-33.13-16.57-22.82-48.87-32.8-63.48-59.29-1.1-2,.12-4.13-.88-6.61-1.52-3.77-5.22-7.93-6.73-10.36-.86-1.36-1-3.36-1.58-3-5.29,3.15,2.34,8.6,1.28,10.17a3,3,0,0,1-1.68,1.08c-4.44,1.45-29.72-2-29.72-.67C1055.25,681.31,1082.65,682.76,1089.57,690.28Z"/><path fill="url(#bg)" d="M1089.57,690.28c3.21,3.5,5.15,44,21.86,67.36,13.91,19.46,31.89,25.72,46.06,22.19,2.6-.65,10.84-19,.55-33.13-16.57-22.82-48.87-32.8-63.48-59.29-1.1-2,.12-4.13-.88-6.61-1.52-3.77-5.22-7.93-6.73-10.36-.86-1.36-1-3.36-1.58-3-5.29,3.15,2.34,8.6,1.28,10.17a3,3,0,0,1-1.68,1.08c-4.44,1.45-29.72-2-29.72-.67C1055.25,681.31,1082.65,682.76,1089.57,690.28Z"/><path fill="url(#bh)" d="M1191.35,734.94s-16.93,44.35-33.86,44.89-29.07-11.29-22-31.38S1191.35,734.94,1191.35,734.94Z"/><path fill="url(#bi)" d="M1140.68,601c-.8,2.24-2.08,4.28-3,6.49s-1.38,4.73-.53,7A8.43,8.43,0,0,0,1142,619a25,25,0,0,0,6.54,1.47,3.5,3.5,0,0,0,1.33,0,2.76,2.76,0,0,0,1.31-.87,9.09,9.09,0,0,0,2.19-6.68,21.55,21.55,0,0,0-1.77-7,74.55,74.55,0,0,0-3.76-8.11C1143.64,590.12,1142.19,596.8,1140.68,601Z"/><path fill="#4d1618" d="M1141.68,606.3a2.66,2.66,0,0,1-1.24.6c-1.91.37-4.89-.84-11-13.56l-.49-1,1-.5c2-1,8.94-4.2,11.49-3.34s2.34,10,2.23,11.65C1143.5,603.26,1142.82,605.33,1141.68,606.3ZM1132,593.39c5.24,10.71,7.53,11.29,7.94,11.29s.51-.37.67-.68c1.62-3.21.77-11.8-.06-13.4C1139.27,590.46,1135.42,591.81,1132,593.39Z"/><path fill="url(#bj)" d="M1133.18,556.19s-.85,22,3.06,26.18c3.22,3.45,8.33,17.06,8.22,20.71-.14,5-3.66,8.6,3,23.12,5.91,12.9,19.18,24,23.45,24.06,10.36.14,18.1-12.39,19.91-16.46,2.8-6.31,12.9-36,14.22-44.91,3.2-21.36-6.25-43.62-25.34-52.8C1156.87,525.11,1134.89,546.29,1133.18,556.19Z"/><path fill="url(#bk)" d="M1202.64,664.93c11.46,5.76,47-23.3,40.21-26.61-16.76-8.21-26-24.64-42-53.7-7.45-13.54-37.89,4.88-23.35,27.3C1190.75,632.37,1199.6,663.4,1202.64,664.93Z"/><path fill="url(#p)" d="M1134.39,553.36c4.77-.38,18.35,11.51,21.63,20.42s8.15,26.39,8.88,21.94,2.32-12.89,6.64-11.76c9,2.35,2.68,14.71,2.48,16.75s20.7,8.64,28.22,8.46c2.15,0,11-2.7,9.86-12.41s4.43-37.67-2.76-49c-6-9.37-39.43-27.83-49.22-23.65-14.78,6.31-29,10.09-35.84,20.85-4.75,7.45,3.57-1.87,8.47-3.49-7.46,6.77-11.09,16.82-9.73,18S1129.1,553.78,1134.39,553.36Z"/><rect width="29.86" height="2.27" x="1130.47" y="590.9" fill="#4d1618" transform="translate(-30.79 63.81)"/><path fill="url(#bl)" d="M1131.27,574.74c2.85-2.53,14.14,5.64,14.14,5.64s-9.75,3-12.29,1.25C1131.65,580.62,1129.94,575.93,1131.27,574.74Z"/><path fill="url(#bm)" d="M1289.2,703.66c-5,23.88-26.08,115.17-54.54,125.45-10.07,3.64-34.29-29.17-37.32-41-10.82-42.07-38.91-63-49.71-89.35,9.73-25.21,21.74-44.28,45.84-54.33,11.49,7.92,46.28,5.39,45.34-8.37C1287.55,639.49,1291.83,691.23,1289.2,703.66Z"/><path fill="url(#bn)" d="M1038,955.71c-.37,10.41,13.8,20.49,22.34,17.91,2.23-.68,5-4.57,3.12-7.14C1058.32,959.66,1038.13,951,1038,955.71Z"/><path fill="#d34259" d="M1029.62 977.6s13.38-.78 19.27-3.7c3.14-1.56 5-3.61 6.92-4.85 1.47 1.77 5.2 2.79 7.48 2.54.59 3.15-.81 7.19-2.77 7.08C1043.56 977.69 1029.61 980.26 1029.62 977.6zM1188.84 671.08c31.85 11.93 2.51 77.75-8.06 92.33-2.33 3.23-38.86-10.33-41.85-23.3C1134.89 722.62 1155.41 658.55 1188.84 671.08z"/><path fill="url(#bo)" d="M1111.62,914.86c-5.08,6.32-41.09,52.2-48.33,56.73-4.37,1.8-12.37-6-11.22-7.11,18.46-18.34,59.9-111.34,64.46-119s38.2-28.83,43.21-21.44C1174.79,846.21,1124.11,899.35,1111.62,914.86Z"/><path fill="url(#bp)" d="M1094.3,835.4c-7.11,10.47-38.38,125.91-37.16,123,13.74-19.42,68.93-84.27,69.91-99.59.17-2.64,52.52-3.4,68.24-7.81,38.2-10.72,37.85-48.47-3.42-49C1150.8,801.42,1101.67,824.56,1094.3,835.4Z"/><path fill="url(#bp)" d="M1094.3,835.4c-7.11,10.47-38.38,125.91-37.16,123,13.74-19.42,68.93-84.27,69.91-99.59.17-2.64,52.52-3.4,68.24-7.81,38.2-10.72,37.85-48.47-3.42-49C1150.8,801.42,1101.67,824.56,1094.3,835.4Z"/><polygon fill="url(#bq)" points="323.28 796.75 278.99 1019.52 263.46 1019.52 295.94 800.77 323.28 796.75"/><polygon fill="url(#br)" points="1048.26 796.75 1092.54 1019.52 1108.07 1019.52 1075.6 800.77 1048.26 796.75"/><polygon fill="url(#bs)" points="1287.31 816.76 1305.52 1007.11 1303.02 1006.48 1272.88 810.15 1287.31 816.76"/><polygon fill="url(#bt)" points="1303.22 801.31 1373.15 986.23 1370.48 986.29 1287.03 798.63 1303.22 801.31"/><polygon fill="url(#bu)" points="1207.91 803.58 1164.32 996.42 1166.97 996.1 1223.57 798.68 1207.91 803.58"/><polygon fill="url(#bv)" points="1265.92 817.46 1233.58 1005.92 1231.32 1004.66 1253.74 807.3 1265.92 817.46"/><path fill="#9d94e6" d="M1302,662.28c-38.18-6.85-60.91,41.83-75.18,95.12-14.08,52.57-108.71,53.06-69.42,96.06,13.74,15,128.68,18.89,166.64-10.62C1369.54,807.5,1348.94,670.69,1302,662.28Z"/><rect width="951.35" height="28.79" x="226.85" y="783.87" fill="url(#bw)" transform="rotate(180 702.525 798.26)"/><path fill="url(#bx)" d="M879.4,718.23c-1.44-6.25-52.28-13.12-45.95-.18,5.48,11.2,1.84,26.63.58,29.41s-20.68,114.71-17.28,126.12,15.42,16.12,21.37,10.31S894.72,784.73,879.4,718.23Z"/><path fill="url(#by)" d="M894.26,692.73c-7.61-31.44-30.59-53.87-52.15-34.23-5.27,4.8-3.21,24.13-7.37,29-19.85,23.31.06,45.53,15.24,51.45,15.77,6.15,45-1.06,48.09,0S894,711.93,894.26,692.73Z"/><path fill="url(#bz)" d="M891.59,719.91c-11.5-18.19-43.84-4.34-43.55-1.06s9.21,116.7,33.36,152.08c6.25,9.15,23.8,1.72,26.1-6.79S917.18,756.16,891.59,719.91Z"/><path fill="url(#r)" d="M879.15,613.23c7.05,14.28,27.21,50.25,40.31,59.15,13.83,9.4,44.79,11.42,78.29,3.06,1.53-4.23-.6-9.08-4-12.06-4.43-3.91-53.9-20.49-56.83-23.12-5.8-5.24-19.87-54.76-32.81-66.4-5.63-5.07-10.79-9.32-19-7.73C859.65,571.05,874.58,604,879.15,613.23Z"/><path fill="url(#s)" d="M1006.39,663.15c3.63,1,16.43,8.49,16.43,8.49.58,1-.83,2.63-1.88,2.14,0,0-1.07-.92-4.35-1.67.19,2.21-6.3,3.9-8.56,3.76-1.45-.09-2-1.33-6-2.79-3.48-.09-7.83.51-9,.23-2.86-.7-4.22-4.92-2.72-7.45C997.06,665.6,1004.13,662.51,1006.39,663.15Z"/><path fill="url(#bA)" d="M903.22,523.87c-16.53-7.78-41.51,25.58-47.18,40.59-17.3,45.75-3.76,71.22-17.74,117.21,4.42,7.55,38.12,23.12,56.7,18.86,10.43-21,8.57-48.32,22.51-77.86C931.1,593.86,928.4,535.71,903.22,523.87Z"/><path fill="url(#bB)" d="M861.12,572.67c-9.22,13.81-30.82,50.84-32.88,67.28-1.83,14.52,11.36,46.49,34.78,72.47,4.46-.82,8.89-2.95,9.91-7.55,1.33-6-8.9-61.79-8-65.81,1.84-8,38.79-46.49,42.87-64.26,1.77-7.73,3.06-14.62-2.3-21.26C889,533.07,867.09,563.71,861.12,572.67Z"/><path fill="#4d3581" d="M920.16,524c-4.37-.21-5.82,5.12-3.93,7.62s2.19,10.92,4.64,10.54,2.71-12.15,1.63-14.56A12.29,12.29,0,0,0,920.16,524Z"/><path fill="url(#u)" d="M876.24,889.86c-12.19,37.14,22.15,80.46,27,136C908,1025,914,1025,915,1020.67c-1.58-9.89-8.25-54.87-8.2-69.42.16-42.23.51-62.64,1.43-73.36.83-9.73-1.22-23.7-8.74-26.88S878.6,882.69,876.24,889.86Z"/><path fill="#725c9e" d="M915.51,520c2.62,3.57,7.76,13.79,5.84,16.56a28.34,28.34,0,0,0-4.77-7.81A57.91,57.91,0,0,0,915.51,520Z"/><path fill="url(#bC)" d="M967.77,498c-2,.43,7.24,14.23,7.79,19.37.65,6.16-11.26,9.05-18.19,4.48-1-.16,5.66-24.83,11.22-25.38C970,496.36,964.85,498.61,967.77,498Z"/><path fill="#eb8c2c" d="M971.09 450.83c-3.44-21-22.17-33-28.78-27.17-5.79 5.13 3.55 22.7 18.33 31.28C965.06 457.5 971.09 450.83 971.09 450.83zM933.7 435.07c-11.09-9.81-26.51-8.07-27.5-2-.87 5.31 11.91 10.69 23.67 8.81C933.38 441.32 933.7 435.07 933.7 435.07zM916.47 441.89c-14.81.12-25.12 11.71-21.81 16.89 2.91 4.54 16 0 23.51-9.25C920.41 446.76 916.47 441.89 916.47 441.89z"/><path fill="url(#bD)" d="M967.55,483.37c28.65-23.28,8.49-52.67,2.11-48.93-4.08,2.38.53,13.33-.35,17.92-1.89-11.6-9-15.53-7.65-6.31-4.88-14.58-16.32-18.21-16.82-7.82-1.42-9.5-16.57-18-23.23-14.89-5.46,2.5,1.15,10.62,3.72,13.53-6-4.59-20.77-6.26-25.49-.75-2.49,2.9-1.2,7.9,4.89,10.61-13.41,11.48-7.28,53.39,1.64,66.87,1.2,1.82,20.12,8.54,38.06-1.22C957.48,505.27,967.55,483.37,967.55,483.37Z"/><path fill="url(#bE)" d="M943.72,492.74a16.62,16.62,0,0,0,5.6.57c4-.22-4.57-13.51,2.67-20.22,3-2.82,17.48-3.85,19.4-.23,3.56,6.68,3.63,25.51,0,27.95-5.6,3.72,2.34,10.81-1.65,15.82-10.4,13-22.56,20.9-29.78,21.07-3.86.09-9.79-2.41-14.15-11.12-1.87,3.4-10.75,11.43-17,12.28-9.43,1.28-19-7.46-17.28-15.4.57-2.68,9.65-9.18,17.08-10.35,9.67-1.51,12.87,2.8,15.76,1.46C923,513.78,941.07,506,940.4,504c-7,2.16-11.53-9.22-11.11-12.26a15.16,15.16,0,0,1,2.49-6.63C934.52,481.74,942,479.38,943.72,492.74Z"/><path fill="url(#bF)" d="M935.86,513.71a117.92,117.92,0,0,1-10.08,12.87,25.74,25.74,0,0,0,9.44,10.08C941.44,532.45,935.86,513.71,935.86,513.71Z"/><path fill="url(#t)" d="M977.87,488.53c.65,1.22.45,3.44-2,7.12.65-1.56,2.42-6.16,1.34-7.19-3.7-.15-15.23,8.22-11.25,8.58a43.35,43.35,0,0,0,9.06,0C977.14,496.52,980.1,488.89,977.87,488.53Z"/><path fill="url(#bG)" d="M938.64,488.28c-2.91-3.24-5.34,0-5.45,2.28-.2,4,3.07,9.22,4.13,8.77s-.41-2.33.78-3.05,2.86,3.23,3.57.61S940,489.78,938.64,488.28Z"/><path fill="#fff" d="M966.72,502.2a15.71,15.71,0,0,0,4.64-1.39,8.51,8.51,0,0,1-2.06,4.26A12.28,12.28,0,0,1,966.72,502.2Z"/><path fill="url(#bH)" d="M970.58,502.87a4.8,4.8,0,0,1-.93,1.92c-.24.3-.56.25-.54-.08,0-.7-.25-1,1-2.12C970.43,502.36,970.69,502.54,970.58,502.87Z"/><path fill="url(#bI)" d="M966.72,502.2s4.52-2.42,6.07-1.61S966.72,502.2,966.72,502.2Z"/><path fill="url(#v)" d="M903.26,1025.88c9.67-1.37,30.14,1.23,30.14-.6s-19.59-6.46-24.08-9.9C906.33,1016.05,897.9,1026.63,903.26,1025.88Z"/><path fill="url(#bJ)" d="M805.15,886.39c-26.83,45.21-9.56,71.38-27.77,124,4.71,1.16,10.1,3.66,12.83.09,2.6-9.67,14.86-53.46,20.85-66.72,17.38-38.49,24.17-51.16,29.39-60.57,4.73-8.54,4.23-20.63-1.33-26.6S811.37,875.9,805.15,886.39Z"/><path fill="url(#bK)" d="M777.36,1010.48c9.39,2.7,27,13.43,27.76,11.76s-15.25-13.9-17.94-18.87C784.17,1002.77,772.16,1009,777.36,1010.48Z"/><path fill="#4d3581" d="M919.56,535.11c1.35-1,2,3.52,2.08,6.43C920,544.11,912,540.92,919.56,535.11Z"/><path fill="#725c9e" d="M894.57,528.67c4.61,6,16.52,11.51,25,6.44-1.64,5.69-1.1,14-.09,14.74-3.92,2.16-26.6-1.33-32.78-9C889.59,535.44,892.67,533.17,894.57,528.67Z"/><path fill="url(#bL)" d="M860.36,731.69c-1.47,8.15,8.52,18.27,10.92,15.38,3.66-4.43,8.64-12.73,8.64-26.46,0-5.26-1.12-12.36-5-12S862.63,719.11,860.36,731.69Z"/><path fill="url(#bL)" d="M860.36,731.69c-1.47,8.15,8.52,18.27,10.92,15.38,3.66-4.43,8.64-12.73,8.64-26.46,0-5.26-1.12-12.36-5-12S862.63,719.11,860.36,731.69Z"/><path fill="url(#bM)" d="M871.59,705.59c4.77,3.4,6.54,6.47,7.44,10.82s-3.5,18.9-6.64,18.88-4.75-6.61-5.13-10.09-4.34-8-2.92-13.6S871.59,705.59,871.59,705.59Z"/><path fill="url(#bN)" d="M874.45,704.87c1.7,5,9.27,25.55-5.83,44.21C885,738.35,883.81,711.59,874.45,704.87Z"/></g></svg>